<?xml version="1.0" standalone="no"?>
<!DOCTYPE svg PUBLIC "-//W3C//DTD SVG 1.1//EN" "http://www.w3.org/Graphics/SVG/1.1/DTD/svg11.dtd" >
<svg>
<metadata>
Created by FontForge 20110222 at Mon Aug 12 07:11:57 2013
 By www-data
DJ ZAI (c) 2013  zai.tomasz.skowronski@gmail.com  All rights reserved.
</metadata>
<defs>
<font id="CourierPolski1941" horiz-adv-x="1229" >
  <font-face 
    font-family="Courier Polski 1941"
    font-weight="400"
    font-stretch="normal"
    units-per-em="2048"
    panose-1="0 0 5 0 0 0 0 0 0 0"
    ascent="1638"
    descent="-410"
    x-height="1091"
    cap-height="1501"
    bbox="-87 -505 1315 1948"
    underline-thickness="77"
    underline-position="-332"
    unicode-range="U+0020-2122"
  />
    <missing-glyph />
    <glyph glyph-name="space" unicode=" " 
 />
    <glyph glyph-name="exclam" unicode="!" 
d="M562 359h129q43 0 106 -176v-36q-107 -165 -176 -165q-188 0 -188 130v106q32 141 129 141zM735 686q-35 -278 -104 -278q-19 0 -40 20q-10 -5 -19 -5q-61 0 -88 241h-1q-37 315 -41 439q1 0 4 79q0 38 -2 70q-2 13 -2 63h1q-1 20 -3 89q41 114 177 114q71 0 161 -85
q0 -40 -1 -74.5t-2 -64.5l11 -34q-15 -53 -15 -68v-2q7 -49 16 -124l-3 6l-21 -113v-22q0 -82 -18 -199v-9q0 -25 -10 -43z" />
    <glyph glyph-name="quotedbl" unicode="&#x22;" 
d="M92 1205v73q45 197 180 197h12q42 19 91 19q21 -9 40 -19h37q36 0 82 -89q35 -42 41 -91q12 -30 25 -66v-49q-22 -34 -43 -63q-107 -347 -290 -459h-62q-85 0 -124 62v31l155 185q-17 19 -33 36q-95 35 -109 127q-13 18 -13 23v47q5 19 11 36zM946 1484q201 -88 201 -217
v-93q-109 -404 -309 -526h-62q-85 0 -124 62v31l155 185q-155 169 -155 186v47q92 325 294 325z" />
    <glyph glyph-name="numbersign" unicode="#" 
d="M601 1135q69 -4 118 -18q30 2 54 4q96 363 110 363h123q18 -12 18 -53q0 -23 -6 -55q-5 -26 -56 -260q204 -28 204 -42v-126q-12 -32 -70 -32q-17 0 -154 9q-13 -138 -29 -227l-25 -137l73 -6q66 -6 66 -57q0 -19 -8 -43q0 -92 -172 -105q-74 -355 -110 -355h-121
q-15 0 -21 53l9 53q11 146 26 268l-8 1l-160 -6q-6 -118 -46 -214q4 -28 4 -51q0 -114 -95 -114q-85 27 -104 52l-19 42q-2 4 -2 18q0 56 36 267q-162 19 -162 66q-13 0 -13 10v116q114 6 207 10q13 48 34 110q30 11 30 110q0 21 -1 47q3 35 42 74q-190 12 -190 44v124
q0 17 36 33h34q71 11 133 18q11 29 36 53q-3 21 -3 45q0 81 39 195q-8 17 -8 30q0 42 72 54q46 0 140 -38l-43 -244zM734 905q-50 -5 -87 -5h-95q-24 0 -24 -98q13 -28 13 -66q0 -67 -42 -165q95 8 140 8h9l14 -1q25 137 59 229q7 55 13 98z" />
    <glyph glyph-name="dollar" unicode="$" 
d="M442 1486q3 61 13 121q-9 48 -9 89q0 138 99 190q39 5 67 5q46 0 62 -14l31 -45q15 -22 22 -368q39 -19 73 -53h62l93 90h31q84 0 124 -75q0 -32 -47 -196l16 -181q-26 -68 -93 -105h-93q-38 0 -93 166q-34 0 -93 90q-132 60 -171 60h-62q-154 -81 -154 -105v-75
q0 -106 480 -181h108q169 0 279 -407q0 -244 -279 -467q-56 0 -188 -16q-2 -66 -11 -144q16 -24 16 -48q0 -50 -69 -103q-22 -12 -50 -12q-35 0 -79 20l-77 113q-14 20 -14 51q0 50 38 130l-154 24q-20 0 -155 -15q-97 31 -109 76q16 277 16 466v61q0 21 46 45h16
q139 0 232 -301q143 -91 248 -91h77q163 0 202 211q-92 181 -233 181q0 24 -325 75q-170 69 -248 271q0 68 -15 91q44 221 232 346l109 30h29z" />
    <glyph glyph-name="percent" unicode="%" 
d="M48 659l40 14q332 183 521 197q159 69 167 72q352 79 424 83l7 -158v-5q0 -35 -62 -56q-21 -8 -220 -64q-175 -97 -278 -134l-107 -37q-278 -90 -420 -90q-58 0 -94 15l-1 115q-2 4 -2 8q0 16 25 40zM432 1503q102 0 209 -126l63 -172q-11 -76 -11 -125v-54
q-135 -156 -273 -179q-320 0 -407 243q43 288 95 288q0 93 313 125h11zM207 1152q0 -57 124 -164q135 0 177 85q36 33 36 78v7q-23 180 -133 180h-20q-184 0 -184 -132v-54zM918 482q-147 -15 -147 -58q-23 0 -43 -134q40 -113 189 -113q63 11 126 83v25q0 22 5 58l-29 80
q-50 59 -97 59h-4zM569 402q0 243 339 243h39q203 0 246 -331v-15q0 -84 -66 -144q-79 -157 -330 -157q-228 115 -228 303v101z" />
    <glyph glyph-name="ampersand" unicode="&#x26;" 
d="M503 1496q170 -56 231 -176q39 -83 39 -231q0 -66 -192 -281q138 -240 150 -248q6 9 39 94q3 0 11 18q-36 0 -36 47q-4 0 -28 133q88 64 160 64q0 6 71 8q142 0 142 -123v-11q0 -59 -25 -118l-7 3h-11q-80 0 -188 -241q-18 -35 -18 -47q50 -90 174 -90h39
q108 116 142 116q36 0 36 -101q0 -132 -78 -202q-108 -102 -189 -115q-111 31 -167 72q-44 31 -103 90q-214 -162 -330 -162q-222 58 -288 166q-71 104 -71 187q-4 0 -4 3q4 13 4 15q-4 7 -4 11q4 7 4 10q-4 7 -4 11q4 7 4 11v11q3 0 3 3q0 115 171 346q36 47 82 93
q0 69 -29 98q-35 116 -35 147v43q0 256 305 346zM393 1158q44 -148 60 -148h43q45 0 82 94q7 28 7 68v11q-42 23 -50 36q-14 31 -14 57h-78q-30 -21 -50 -118zM247 492q0 -118 29 -148q73 -108 185 -108q70 83 103 87q-13 31 -217 324v3h-7q-35 0 -93 -158z" />
    <glyph glyph-name="quotesingle" unicode="'" 
d="M401 1205v73q45 197 180 197h12q42 19 91 19q21 -9 40 -19h37q36 0 82 -89q35 -42 41 -91q12 -30 25 -66v-49q-22 -34 -43 -63q-107 -347 -290 -459h-62q-85 0 -124 62v31l155 185q-17 19 -33 36q-95 35 -109 127q-13 18 -13 23v47q5 19 11 36z" />
    <glyph glyph-name="parenleft" unicode="(" 
d="M294 1713q197 147 287 147h2q109 -1 134 -178q-40 -127 -255 -127h-13l-80 -176v-14q-6 -403 -20 -541q30 -110 30 -148q-17 -394 -17 -440q27 -212 111 -213l179 -3q89 -53 89 -134q0 -108 -149 -188q-429 44 -477 389l-5 402v368q-1 52 -1 102q0 615 185 754z" />
    <glyph glyph-name="parenright" unicode=")" 
d="M488 1668q-2 29 -2 44q0 14 2 14q42 114 202 114h8q295 -4 416 -373v-14q-11 -491 -25 -629q30 -110 30 -148v-446q-12 -257 -153 -376q-140 -118 -200 -118h-1l-148 -42h-16q-119 13 -119 105q0 176 201 218q171 35 171 242q0 35 -5 75l1 155v368q1 67 1 127
q0 524 -85 524h-2l-127 55q-70 1 -149 105z" />
    <glyph glyph-name="asterisk" unicode="*" 
d="M525 1064q-2 23 -4 77q-29 46 -32 177q0 166 160 166h20q66 0 99 -185l-20 -226q28 -19 49 -38q61 26 154 58v1q0 13 62 29l11 4q62 12 105 12q83 0 95 -44l11 -42q6 -24 6 -46q0 -113 -169 -163q-115 -16 -144 -16l-1 3q-2 0 -2 -20v-37q-30 -68 -47 -94l3 -3
q25 -36 163 -137q32 -63 32 -114q0 -72 -64 -119q-21 -3 -41 -3q-80 0 -122 57q-25 34 -117 197h-1q-2 0 -4 -7q-4 -9 -37 -9h-34q-70 0 -104 12q-6 -14 -38 -107q-150 -146 -218 -146q-16 0 -27 8l-10 7q-71 63 -71 132q0 52 41 107q84 43 148 131l15 20q-18 40 -18 70v11
q0 24 -6 27q-202 42 -246 55q-92 30 -110 159q37 115 164 115q25 0 53 -4q150 -110 197 -125l13 -4q33 32 86 54z" />
    <glyph glyph-name="plus" unicode="+" 
d="M470 470q-103 -10 -179 -10q-215 0 -215 81q-15 0 -15 15q0 92 160 219q143 6 251 10v1q-51 77 -51 150q0 43 18 84q-11 23 -11 42q0 64 128 89q52 3 88 3q58 0 79 -7l40 -21q24 -12 33 -234q14 -8 14 -43q0 -23 -6 -59q355 -10 355 -131v-60q0 -139 -143 -139
q-38 0 -85 10l-153 15q9 -29 9 -53q0 -45 -34 -71q29 -33 29 -86q0 -35 -13 -78q21 -11 21 -22q0 -24 -91 -50q-28 -5 -63 -5q-46 0 -103 9l-101 54q-16 9 -16 47q0 71 54 240z" />
    <glyph glyph-name="comma" unicode="," 
d="M642 553q201 -88 201 -217v-93q-109 -404 -309 -526h-62q-85 0 -124 62v31l155 185q-155 169 -155 186v47q92 325 294 325z" />
    <glyph glyph-name="hyphen" unicode="-" 
d="M734 781q425 0 425 -132v-60q0 -175 -279 -175l-176 30l-190 -30q-438 0 -438 117q-15 0 -15 15q0 92 160 219q380 16 513 16z" />
    <glyph glyph-name="period" unicode="." 
d="M523 479h180q60 0 148 -246v-49q-150 -230 -246 -230q-262 0 -262 181v147q45 197 180 197z" />
    <glyph glyph-name="slash" unicode="/" 
d="M1204 1883q60 0 105 -75v-150q0 -75 -150 -180l-240 -391q-60 0 -135 -105v-105q0 -144 -255 -450q-99 -285 -270 -496q-91 -225 -241 -225q-96 39 -105 75v60q0 35 270 496q0 50 226 360q57 19 135 225q34 70 165 150q0 227 165 346q38 134 195 345q0 97 135 120z" />
    <glyph glyph-name="zero" unicode="0" 
d="M558 1390q331 0 438 -232q87 0 164 -452q-79 -519 -177 -519q0 -166 -425 -192q-396 160 -396 356q0 20 -96 219v13q27 97 27 151q0 29 -13 150q225 452 355 452q62 54 123 54zM326 775v-69q81 -355 150 -355q134 -55 165 -55h82q191 167 191 493l-109 273l-192 69
q-287 -173 -287 -356z" />
    <glyph glyph-name="one" unicode="1" 
d="M742 1406h43q52 0 72 -228q-15 -186 -15 -300l15 -28q-15 -14 -29 -171q29 -47 29 -72q-29 -180 -29 -228q43 -71 43 -114q-47 -271 -171 -271q-129 0 -129 71q0 48 15 72l-15 71q15 384 15 613q0 74 -43 86h-114q-157 22 -157 71v86q0 97 214 171q125 171 256 171z" />
    <glyph glyph-name="two" unicode="2" 
d="M604 1395h28q305 0 412 -220q68 -172 68 -192q-97 -453 -370 -453q-245 -141 -261 -178v-55q190 -28 247 -28q23 0 274 28q57 -19 83 -69v-14q0 -219 -165 -219q-117 27 -151 27q-124 -27 -178 -27h-28q-426 19 -426 82q-27 45 -27 83v41q0 219 384 467q316 104 316 343
v13q-62 83 -123 83h-28q-206 0 -206 -110q-36 -1 -192 -165h-27q-15 0 -110 165q131 384 398 384q0 14 82 14z" />
    <glyph glyph-name="three" unicode="3" 
d="M943 1417q93 -35 93 -56l-2 -81q-79 -110 -221 -235q-14 -17 -16 -67q276 -72 276 -218v-4q8 -55 8 -159q0 -38 -1 -82q-4 -129 -113 -198q-89 -231 -669 -438q-117 30 -117 132v5l1 54q4 140 462 229q165 134 167 210v16q0 180 -112 295h-1q-23 0 -283 -99
q-64 1 -77 122q2 94 192 183q102 49 137 103q-12 27 -12 41l-134 4h-4q-83 0 -253 -87q-92 34 -92 55v1l1 67q5 171 220 195l134 -4q64 -1 134 -17q231 13 282 33z" />
    <glyph glyph-name="four" unicode="4" 
d="M772 1401q114 -70 114 -269q-13 -275 -13 -493v-53q0 -49 194 -63q49 -50 49 -96v-27q0 -76 -229 -166q-14 -76 -14 -89q54 -106 54 -141q-77 -100 -166 -100q-107 0 -165 164q13 112 13 178q-54 27 -54 53q-33 -22 -159 -35q-211 0 -246 137v77q53 162 107 276
q173 210 390 597q90 50 125 50zM578 881q-113 -176 -113 -255q0 -7 2 -19l50 -18q117 16 153 149l-11 81q-4 34 -81 62z" />
    <glyph glyph-name="five" unicode="5" 
d="M404 1411q109 -12 237 -25q89 13 175 13q127 0 190 -94v-54q0 -86 -501 -108q-13 -109 -27 -109q0 -71 352 -108q189 -86 189 -284q14 0 41 -94q-51 -338 -95 -338q-226 -257 -311 -257q-104 -68 -365 -68q-85 0 -95 135q0 135 284 135q311 220 311 338l14 55
q-24 78 -135 229h-14q-47 0 -270 -148h-27q-163 0 -163 203q0 10 14 81q-14 202 -14 297q45 201 197 201h13z" />
    <glyph glyph-name="six" unicode="6" 
d="M846 1411h27q144 -13 144 -118q0 -132 -302 -132l-237 -171l-27 -92l27 -13q112 13 171 13q355 -66 355 -185q66 -41 66 -276q0 -308 -368 -435h-53q-320 0 -487 290q0 46 -13 277q7 544 171 632q265 210 526 210zM399 463q61 -210 237 -210q197 143 197 250
q0 153 -184 171q-108 0 -237 -158q-13 -23 -13 -53z" />
    <glyph glyph-name="seven" unicode="7" 
d="M953 1399q138 -3 138 -128v-75q-133 -210 -188 -373q-61 0 -126 -311q-42 -512 -137 -512h-1l-87 1q-76 55 -76 115q0 399 138 712q0 14 -12 38q100 157 100 187v87q-12 38 -75 40l-188 3q-29 0 -76 -199q-56 -23 -109 -23h-4q-100 44 -100 153q0 286 136 286h2l63 -2
q42 0 63 -13q143 16 375 16q77 0 164 -2z" />
    <glyph glyph-name="eight" unicode="8" 
d="M399 483q91 -250 288 -250h38q163 76 163 179v23q-50 250 -264 250h-25q-188 0 -188 -143q0 -39 -12 -59zM773 1206q-9 25 -75 25q-36 0 -90 -7q-151 -22 -151 -111v-60q90 -121 197 -121q98 0 131 54q22 37 22 78q0 19 -5 40q-16 63 -29 102zM1031 977q0 -8 -52 -167
q65 0 119 -246q13 -62 13 -114q0 -154 -118 -217q0 -212 -394 -238q-262 0 -449 263q0 374 163 489v63q0 51 -41 101q-31 36 -31 95q0 20 4 42v37l-14 75q0 54 130 140t130 92t198 18h24q179 0 253 -162q13 -22 35 -35v-76q0 -7 7 -70.5t23 -89.5z" />
    <glyph glyph-name="nine" unicode="9" 
d="M459 1403q30 14 86 14q41 0 95 -8q127 -18 286 -44q206 -174 206 -453l-14 -65v-155q-48 -41 -82 -323q-47 -145 -248 -272q-128 -103 -468 -103l-55 65v26q0 167 330 167q262 113 262 247q23 0 55 77q-21 51 -42 51h-13q-124 -90 -179 -90h-151q-248 0 -317 247
q-27 51 -41 219q27 45 41 129q-14 22 -14 65q209 180 263 206zM419 1072v-52q0 -167 103 -232l27 13q50 0 180 -39q155 0 155 194v39q0 108 -245 193h-13q-114 0 -207 -116z" />
    <glyph glyph-name="colon" unicode=":" 
d="M653 1044q159 -124 159 -238v-27q-69 -185 -159 -185h-26q-199 0 -199 252q0 152 225 198zM574 541q225 -60 225 -213v-132q-66 -119 -172 -119q-212 0 -212 212v92q0 160 159 160z" />
    <glyph glyph-name="semicolon" unicode=";" 
d="M812 843q0 -255 -202 -255h-26q-91 0 -161 188v27q0 115 161 241q228 -47 228 -201zM645 531q171 -74 171 -184v-79q-92 -343 -262 -446h-53q-72 0 -105 52v27l132 157q-132 143 -132 158v39q78 276 249 276z" />
    <glyph glyph-name="less" unicode="&#x3c;" 
d="M1156 193q-23 -97 -165 -97q-122 0 -334 72q-14 84 -395 111q-243 122 -243 279q0 171 638 315q25 44 457 168h5q50 0 50 -88q0 -80 -40 -229q-172 0 -718 -153v-38q0 -87 764 -160q8 0 8 -22q0 -41 -27 -158z" />
    <glyph glyph-name="equal" unicode="=" 
d="M95 972h39q201 42 342 42q115 0 190 -28q166 15 175 15q335 -54 335 -78v-188q-14 -47 -80 -47q-21 0 -216 16q-192 -40 -296 -40h-108q-422 9 -422 76v185q0 23 41 47zM744 499l358 -39q76 -10 76 -97q0 -30 -9 -69q0 -175 -264 -175h-15l-176 34l-190 -27
q-438 7 -438 128q-15 0 -15 15v193q514 37 659 37h14z" />
    <glyph glyph-name="greater" unicode="&#x3e;" 
d="M56 420q548 73 548 153v34q-330 135 -522 141q-48 0 -48 121q0 24 2 52q8 130 39 130q10 0 22 -13q452 -119 477 -159q638 -132 638 -289q0 -144 -243 -255q-381 -26 -395 -102q-457 -84 -498 -152q-50 17 -50 144q0 16 1 35q7 160 29 160z" />
    <glyph glyph-name="question" unicode="?" 
d="M603 324h105q51 0 111 -160v-43q-100 -147 -168 -147q-178 0 -178 130v85q32 135 130 135zM750 719q-9 0 -9 -19q0 -50 62 -233l-45 -88q-314 0 -314 139q-13 25 -13 56q0 114 182 302q119 163 119 297v22q-57 85 -144 148q-87 0 -154 -86q97 -36 97 -158
q-58 -124 -126 -136h-46q-53 0 -151 152v38q0 391 391 391q321 0 435 -300v-73q-13 -63 -29 -100q-70 -145 -255 -352z" />
    <glyph glyph-name="at" unicode="@" 
d="M468 607v-10q0 -15 55 -53h10q306 34 306 167q-35 21 -65 21l-77 1q-8 0 -217 -83q-12 -19 -12 -43zM1182 326q-24 -93 -28 -185q-84 -151 -232 -228q-194 -95 -280 -114h-35q-350 86 -350 208q-230 26 -230 835q0 98 3 207q46 152 71 152q0 338 524 492
q188 0 339 -104.5t227 -344.5q-28 -92 -74 -92q-29 0 -64 35q-16 -9 -31 -9q-55 0 -68 135q-54 117 -163 117q-42 0 -92 -17l-111 26q-275 -20 -347 -606q0 -64 8 -163v-3q0 -506 291 -607l89 -21q68 1 294 129q18 60 18 130q0 79 -23 170q-59 -30 -68 -30q-78 -52 -150 -52
h-3l-43 11q-104 -32 -121 -32q-227 88 -227 178v1q0 24 -12 116q1 67 99 127v2l207 61q196 19 196 72q0 74 -87 74q-153 -26 -153 -106l-163 -62q-66 78 -66 116v21q94 189 285 189h108q284 -1 284 -274q20 0 20 -58v-6q-32 -115 -32 -178q1 -55 31 -55q11 0 24 7q9 4 19 4
q100 0 118 -93q2 -64 2 -105q0 -57 -4 -70z" />
    <glyph glyph-name="A" unicode="A" 
d="M923 696q73 -372 132 -372q200 -31 200 -143v-3q-5 -178 -333 -178h-32q-231 0 -231 142v4q8 55 130 161v6q0 124 -122 124h-16q-3 0 -4 -32q-219 -21 -220 -65l-1 -33q121 -136 121 -161q-3 -119 -207 -146l-78 16l-78 -16q-199 0 -199 170v8q32 39 32 65
q222 82 225 210q51 388 90 388q74 453 137 453q6 227 131 227h16q141 -74 307 -825zM585 1099q-22 0 -40 -80q-66 -210 -66 -252q0 -53 146 -66q79 0 79 172q-90 226 -119 226z" />
    <glyph glyph-name="B" unicode="B" 
d="M700 1506l59 -1q373 -110 373 -287q29 -70 29 -272q-90 -97 -90 -139q0 -32 54 -32h7q74 -146 74 -164q0 -478 -118 -478h-1q-55 -113 -700 -141q-387 8 -387 132v16q0 135 223 181q41 0 90 169l-45 187q45 164 45 201v342q0 46 -268 67l-30 47v63q0 106 100 106h4
q179 -7 179 -35q22 0 402 38zM543 1153v-162q0 -21 41 -44h136q205 0 205 191q-73 118 -177 118q-205 0 -205 -103zM521 620v-129l-13 -87q37 -115 178 -115q275 47 275 202v43q0 144 -316 144h-41q-55 0 -83 -58z" />
    <glyph glyph-name="C" unicode="C" 
d="M631 1501q83 -15 270 -90q89 26 152 75h50q28 0 68 -105q-34 -125 -34 -270q0 -27 34 -165q-43 -117 -102 -135q-124 0 -253 360q-112 60 -152 60h-50q-338 -53 -338 -465q-17 -25 -17 -76q68 -360 321 -360h101q142 0 220 180q73 116 168 165q59 -18 102 -135
q-94 -435 -270 -435q-105 -105 -287 -105q-506 122 -506 390q-24 0 -68 120q0 701 219 826q0 97 338 165h34z" />
    <glyph glyph-name="D" unicode="D" 
d="M823 1490q368 -182 368 -530v-19q-1 -45 -17 -104q13 -235 22 -255q-90 -444 -187 -444h-1q-100 -96 -519 -135l-30 1q-146 4 -146 34l-74 -13l-44 1q-125 4 -175 95l1 15q6 206 106 206h3q80 -17 117 -18q26 0 74 28l-12 105l2 75q3 105 3 193q0 480 -87 483
q-188 5 -188 120v5l2 104q1 24 61 59l265 -8q77 -2 169 -2q129 0 287 4zM525 1094v-17q0 -80 24 -211q-32 -59 -35 -166l-1 -30v-6q0 -40 14 -40l-17 -76l-3 -106v-11q0 -155 132 -159q24 0 185 131q131 67 190 298q-73 472 -169 475v1q0 49 -210 66h-3q-103 0 -107 -149z
" />
    <glyph glyph-name="E" unicode="E" 
d="M979 1491q125 -43 222 -152l-14 -77v-46q0 -88 14 -244q-35 -106 -59 -106h-59q-56 0 -134 274q-57 91 -177 91h-74q-164 0 -164 -121v-168q0 -23 45 -46q99 0 133 183l30 15h59q111 -18 119 -60q0 -581 -134 -581q-43 0 -148 168h-74q-44 -15 -44 -92v-14
q0 -215 89 -215q130 -30 207 -30q193 0 193 321l89 76h29q35 0 104 -320q-34 -336 -193 -336q-143 0 -311 -16l-533 30q-104 -45 -149 -45q-29 50 -29 92v107q0 70 252 91q29 50 29 77q15 401 15 472q0 412 -104 412q-192 0 -192 138v46q0 23 59 61h30q293 0 874 15z" />
    <glyph glyph-name="F" unicode="F" 
d="M919 1009l-13 -91l1 -32q30 -38 31 -62v-9q0 -62 -25 -176l17 -61q-24 -214 -83 -214l-90 3q-64 15 -95 234l-59 33q-22 0 -73 -60l15 -31q-23 -221 -23 -231l30 -16l133 -4q83 -2 151 -113l2 -61v-3q0 -127 -268 -127q-19 0 -40 1l-253 39q-88 -11 -145 -11h-17
q-89 34 -92 126v3q0 128 262 159v6q0 39 13 39h1q0 16 -16 47q15 362 15 523q0 36 -1 62q-7 262 -110 265q-133 4 -182 129q38 102 86 120l119 -3q197 25 517 30q79 -17 150 -19q50 27 122 27h10l133 -84l66 -229l-12 -32q17 -131 20 -217l1 -61v-6q0 -106 -98 -176l-45 1
q-27 7 -70 116q-31 77 -31 170q0 38 5 79l-98 123l-177 -4q-39 21 -71 22h-7q-95 0 -95 -98v-6l4 -154q2 -78 62 -94h1q69 0 119 281l140 3q46 -89 63 -156z" />
    <glyph glyph-name="G" unicode="G" 
d="M1182 779q49 -56 49 -105q0 -120 -210 -210q-32 -49 -32 -75q32 -135 32 -194v-15q-89 -165 -193 -165q-12 0 -96 15q-151 -30 -241 -30h-97q-86 114 -210 209q-144 197 -144 285q0 37 16 120q0 33 -16 60q0 537 193 702q133 165 241 165h49q201 -75 305 -75l81 46
q129 0 129 -285q0 -119 -33 -119l16 -75v-61q0 -53 -64 -119v-3l-96 3q-51 38 -161 269l-113 76q-337 -71 -337 -226v-329q90 -329 353 -329h48q113 44 113 135q0 51 -193 104q-48 55 -48 105v60q0 20 80 75h161q42 0 66 11l286 -14q30 -6 66 -11z" />
    <glyph glyph-name="H" unicode="H" 
d="M803 638q-123 -42 -414 -50v-16l16 -61q-31 -133 -31 -170q0 -49 187 -155v-94q0 -73 -374 -92v16l-31 -16h-78q-21 0 -78 77v155q125 67 125 93q0 57 31 247l-16 140q16 107 31 139q-40 403 -140 403q-31 61 -31 108q0 123 296 123q138 16 171 16q94 -70 94 -139
q0 -87 -172 -155v-232l16 -78h62q146 -29 246 -72q115 17 159 104q-43 294 -187 294q-62 16 -62 154q0 53 140 108q202 -20 250 -46l93 46q140 -20 140 -139l-187 -201q16 -161 16 -185q0 -102 -16 -264q8 -433 78 -433q62 0 94 -61v-110q-56 -92 -187 -92q-39 0 -172 31
q-84 -15 -171 -15q-71 30 -78 61v31q0 118 187 155q38 50 47 139q-16 130 -54 236z" />
    <glyph glyph-name="I" unicode="I" 
d="M137 1303q-2 29 -2 44q0 14 2 14q42 114 202 114h8l238 26q106 -16 119 -16q153 10 241 10h27q109 -1 134 -178q-40 -127 -255 -127h-13l-75 -88v-14q0 -126 -14 -264q30 -110 30 -148q-16 -233 -16 -279q21 -74 105 -75l179 -3q89 -53 89 -134q0 -108 -149 -188
q-507 37 -567 38l-148 -42h-16q-119 13 -119 105q0 176 358 259l15 29v103q0 74 -44 236l44 132q0 293 -119 340l-105 1q-70 1 -149 105z" />
    <glyph glyph-name="J" unicode="J" 
d="M543 1511q150 -31 171 -31l78 31q135 -16 155 -16q137 16 170 16q71 -30 78 -62v-93q0 -155 -248 -155q-31 -57 -31 -125v-403q0 -558 -233 -667q-52 0 -78 -16q-15 0 -15 16l-155 -16h-78q-222 0 -295 264l-62 171q59 326 279 326q171 0 171 -233v-16q-62 -170 -62 -186
l47 -31h46q186 36 186 140q0 23 -15 248l15 78q0 18 -46 294l15 31q0 120 -217 233v124q0 37 124 78z" />
    <glyph glyph-name="K" unicode="K" 
d="M203 -10h-42q-166 0 -166 198v76q0 54 208 107v15q-14 192 -14 228q43 63 43 381q0 244 -168 244q-55 42 -55 106v92q0 24 55 61h83q32 0 56 -16l29 16q180 -16 291 -16q21 0 98 -106v-15q-223 -173 -223 -198v-153q0 -112 42 -121q133 90 264 335v15q0 36 -56 122v45
q49 92 126 92h27q313 -19 362 -92q14 -26 14 -61v-15q0 -46 -181 -106q-278 -331 -278 -442q256 -457 291 -457q199 0 237 -137q0 -128 -181 -183l-125 31q-95 -16 -152 -16q-26 0 -105 -4q-3 -1 -6 -1q-75 0 -88 113q-4 31 -4 57q0 68 28 92q37 33 63 33v46
q-61 213 -167 213q-83 -96 -83 -213l134 -65q17 -126 17 -189q0 -58 -14 -62q-30 -9 -360 -50z" />
    <glyph glyph-name="L" unicode="L" 
d="M798 1492q101 -32 101 -122v-2l-1 -31q0 -61 -235 -88q-70 -102 -70 -136q12 -101 12 -121v-2q-1 -79 -19 -306l25 -260l-26 -92q72 -62 92 -63q7 0 59 15q100 -17 161 -18q78 99 91 197v16q0 17 -27 168q2 83 61 107l58 -1q109 -21 116 -64l-1 -61q-2 -195 -48 -305
l13 -92q-2 -114 -165 -258l-88 2q-56 47 -87 47h-6q-43 0 -214 -12l-59 17q-159 -27 -216 -27h-4q-291 5 -291 125v2q2 107 163 135l73 -16q66 24 66 101q0 10 -1 20l1 30q1 49 1 96q0 174 -9 333q16 105 17 168l-14 62q16 60 16 107v4q0 87 -91 89q-15 0 -44 -15
q-159 28 -159 108v2q27 137 89 137h1q52 -1 131 -18q307 22 487 22h41z" />
    <glyph glyph-name="M" unicode="M" 
d="M493 57q-13 -55 -57 -55h-6q-14 1 -42 1q-79 0 -276 -8q-63 25 -97 91v59q0 27 126 251q0 179 27 297l-27 490q-113 1 -154 225l237 100q279 -4 279 -212q70 -362 84 -522l28 -14q77 92 112 325q27 0 42 296q44 112 358 112h33q83 -119 83 -179q-139 -128 -139 -459
q0 -61 14 -119q-14 -78 -14 -148v-243q126 -84 126 -175q-59 -175 -193 -175h-3l-14 1q-14 0 -14 14l-69 -13l-112 2q-42 0 -66 53q-14 30 -14 66q0 27 8 57q17 70 86 94.5t69 187.5q0 86 14 105l-14 88v105q0 29 -28 30q-84 -129 -84 -385q-13 0 -42 -59v-41
q-53 -191 -89 -222t-75 -38h-2q-39 0 -112 335q0 45 -70 165q0 76 -42 253h-14l-15 -74v-74q0 -65 29 -119q-14 -80 -14 -134v-29q42 -75 86.5 -75.5t57.5 -86.5q6 -41 6 -76q0 -38 -7 -68z" />
    <glyph glyph-name="N" unicode="N" 
d="M201 1503l143 -2q201 -3 284 -340q71 -115 97 -306q70 -65 70 -152v-2h15q29 0 44 121v25q0 419 -167 421l-43 61l1 77q1 71 202 89q28 0 28 -15v-1l72 15l158 -2q112 -1 143 -78v-31q-1 -109 -189 -212l-30 -106v-107q0 -413 52 -413q-16 -153 -17 -229l-2 -229
q-1 -53 -159 -75h-14q-83 1 -295 645q-83 185 -99 185q-43 -64 -44 -122l12 -183l-15 -107v-1q0 -117 227 -216v-30q-2 -178 -410 -178h-23q-199 48 -199 154v1q1 88 174 181l15 61l-13 107l15 31l-14 61q17 281 18 351v14q0 298 -126 339q-56 30 -56 90v2q1 70 145 106z
" />
    <glyph glyph-name="O" unicode="O" 
d="M579 1518q375 -5 557 -474q8 0 40 -333q-44 -437 -124 -511q-145 -192 -322 -192h-5q-66 -29 -129 -29h-4q-294 67 -294 153v1q-228 179 -228 686v26q-15 0 -15 30q3 220 257 510q1 83 267 133zM350 782q59 -369 143 -370q0 -59 192 -76q178 71 179 190l1 73
q0 13 -28 119q31 157 31 206v3q0 140 -188 310l-104 1h-2q-173 0 -208 -367z" />
    <glyph glyph-name="P" unicode="P" 
d="M577 1501h89q548 -97 548 -332v-16q-41 -132 -74 -392q-191 -182 -489 -182q-29 -60 -44 -60q0 -180 178 -242q74 -34 74 -151q0 -69 -148 -131l-326 25l-89 15q-117 -45 -148 -45q-36 0 -133 121v75q40 92 281 167q0 16 15 45q-15 165 -15 287q0 61 30 181
q-15 107 -15 182q30 121 30 151q0 22 -45 45h-177q-27 0 -89 106v15q75 136 547 136zM580 1184v-91q0 -34 14 -60q-14 -27 -14 -61v-15q0 -99 84 -121q278 0 278 197v15q-61 181 -125 181h-195q-20 0 -42 -45z" />
    <glyph glyph-name="Q" unicode="Q" 
d="M313 805q27 -44 27 -69v-2q-16 -75 -16 -85q18 -152 284 -308q15 0 42 -14q135 0 160 170q71 16 118 275q-67 378 -216 421q0 29 -156 43q-215 -94 -243 -431zM610 -51q44 46 49 60q2 9 3 19l-62 -28q-231 0 -460 384q-28 47 -77 383q18 276 181 441q107 270 247 270
q0 28 43 28q247 0 381 -156q140 -76 236 -448l23 -122q-41 -442 -215 -602q-117 -182 -117 -234q0 -21 19 -21q3 -9 5 -17q20 -6 37 -6q67 0 76 58q6 39 70 39q30 0 74 -9h26q17 0 17 -58q0 -42 -9 -116q-26 -137 -318 -149q-237 1 -291 86l-216 22q-56 -96 -195 -96
q-26 0 -54 3q-7 27 -7 51q0 19 4 36l26 101q18 65 279 136q148 -39 225 -55z" />
    <glyph glyph-name="R" unicode="R" 
d="M698 170v-22q0 -113 -85 -134q-79 -20 -143 -20q-11 0 -22 1q-71 4 -119 4q-69 0 -89 -8q-157 8 -265 235q3 53 216 165l31 132q-21 50 -21 134q0 14 1 29q2 29 43 101q-18 141 -18 187v5q1 13 18 117v10q0 138 -163 146q-34 72 -34 115v5q50 122 215 122q12 0 24 -1
q69 3 136 3q90 0 177 -5q413 -21 413 -108v-2q107 -87 107 -263v-22q-9 -201 -162 -434q44 -94 64 -289q8 1 16 1q134 0 203 -180l-4 -48q-156 -137 -212 -137h-2q-54 -7 -98 -7q-142 0 -176 74l-59 408v6q0 76 -73 115q-92 -25 -96 -112l-2 -31q-8 -33 -8 -61
q0 -93 88 -132q18 7 33 7q59 0 66 -106zM491 1206l9 -117q-1 -39 -29 -103q6 -78 49 -79q19 -1 36 -1q287 0 294 184l1 25v4q0 87 -139 105q-20 1 -39 1q-103 0 -182 -19z" />
    <glyph glyph-name="S" unicode="S" 
d="M955 1501h31q84 0 124 -75q0 -32 -47 -196l16 -181q-26 -68 -93 -105h-93q-38 0 -93 166q-34 0 -93 90q-132 60 -171 60h-62q-154 -81 -154 -105v-75q0 -106 480 -181h108q169 0 279 -407q0 -244 -279 -467q-76 0 -294 -30l-294 45q-20 0 -155 -15q-97 31 -109 76
q16 277 16 466v61q0 21 46 45h16q139 0 232 -301q143 -91 248 -91h77q163 0 202 211q-92 181 -233 181q0 24 -325 75q-170 69 -248 271q0 68 -15 91q44 221 232 346l109 30h216q96 0 171 -75h62z" />
    <glyph glyph-name="T" unicode="T" 
d="M251 1496q71 -1 94 -17q126 13 210 13h12l221 -2q331 -4 331 -185v-2q0 -9 92 -229l-17 -107q15 -80 15 -92q-9 -135 -126 -135h-18q-151 1 -202 398v4q0 103 -93 104q-23 0 -48 -45q-1 -90 -20 -320q58 -335 58 -451v-38q0 -56 220 -78q109 -110 109 -183v-1
q-1 -119 -333 -119h-16q-1 -14 -84 -14h-11q-521 6 -521 111v1q-47 16 -47 89v3q1 91 350 119q48 49 48 75v10q0 73 -14 174q1 37 35 213q-14 125 -14 217v12l2 152l-63 16q-89 0 -179 -410q-57 -44 -109 -44h-34q-62 32 -62 76v17q0 107 -12 319q101 349 209 349h17z" />
    <glyph glyph-name="U" unicode="U" 
d="M856 1505l73 1q322 -48 322 -98v-2q0 -92 -157 -273q-16 -966 -118 -969q-180 -155 -188 -155l-146 -4q-336 34 -337 144q-133 86 -133 147q28 63 28 92l-31 74l28 136q0 14 -17 120q10 194 10 334v45q0 28 -193 207q-15 25 -15 60q96 137 173 139l205 -10q80 17 116 18
q72 -23 132 -81l31 -77q-7 -89 -55 -99q-137 -67 -161 -121l1 -77q1 -59 15 -59l-13 -107l6 -376q80 -234 312 -234h26q115 64 115 137v1q-16 158 -18 256l14 61q-15 25 -15 76v4q0 31 13 56q-15 81 -16 135l-2 137q-1 74 -30 74h-1l-102 -17q-74 60 -79 218l30 67
q102 18 177 20z" />
    <glyph glyph-name="V" unicode="V" 
d="M713 1456q360 14 415 14q106 -92 145 -114v-77q-66 -174 -235 -174q-59 0 -132 -457q-67 -14 -89 -395q-97 -243 -223 -243q-137 0 -252 638q-35 25 -134 457q-48 50 -221 122q-45 59 -45 137q0 106 193 106q93 16 207 16h119q104 -49 126 -58q16 -7 16 -98q0 -25 -1 -57
h-8q-133 -96 -133 -153q0 -172 118 -502h30q70 0 133 548q0 22 -55 62q-47 33 -47 142q0 20 2 42z" />
    <glyph glyph-name="W" unicode="W" 
d="M1158 1495q93 0 93 -106v-16q3 -23 3 -43q0 -102 -88 -115q-145 -519 -195 -940v-122q0 -99 -109 -153h-93q-94 53 -94 137v77q0 159 -77 518h-32q0 -38 -15 -122l15 -106q-88 -489 -140 -489l-31 -15q-140 52 -140 153l-20 138q-135 620 -177 915q-86 37 -86 120
q0 15 3 32v61q0 66 233 76q97 -13 97 -22q0 -2 -2 -3q10 3 17 3q19 0 20 -23v-118l-4 -65q-31 0 -46 -92q30 -152 30 -275v-45q5 -31 31 -31h31q41 1 91 214q-35 223 -88 229q-10 71 -10 122q0 122 59 124q84 3 135 3q71 0 262 -59l-53 -215q-11 -50 -15 -128q0 -38 61 -336
h15q31 0 31 31v183q0 93 76 198q-38 119 -67.5 128.5t-32.5 76.5v4q0 63 88 79q90 17 224 17z" />
    <glyph glyph-name="X" unicode="X" 
d="M704 221l2 122v10q0 128 -72 130h-1q-61 0 -151 -136v-31q71 -113 132 -144l6 -64q-131 -109 -389 -109h-23q-237 4 -237 153v19q1 70 286 164q199 281 201 427q-160 432 -232 433q-222 26 -222 170v3q2 117 292 117h24l195 -3q73 -46 73 -107v-2h4l-5 -82
q-23 -23 -76 -70v-3q0 -71 87 -182q67 25 120 105l2 92q-37 71 -95 172q78 85 290 85h19l74 -1q208 -23 208 -65l-1 -76q-2 -97 -333 -286q-93 -209 -93 -244l-1 -46q130 -453 320 -527q118 -44 118 -109v-1q-2 -98 -242 -134q-218 4 -320 107l2 63z" />
    <glyph glyph-name="Y" unicode="Y" 
d="M618 1409q124 87 325 87h30q18 -1 34 -1q71 0 109 11q115 -87 115 -152v-1q-2 -139 -250 -232q-19 -73 -161 -324q-1 -58 -56 -269q-4 -27 -4 -51q0 -142 130 -142q30 0 66 7q114 -3 114 -213v-30q-81 -113 -225 -113h-10l-92 19l-506 -14q-77 38 -77 90v1
q53 221 118 221h2l130 -3h6q85 0 86 117l-12 31l14 103v1q0 90 -227 471v1q0 76 -192 171q0 24 -52 61l-23 152q88 95 257 95h17l182 -6q37 -44 69 -44q5 0 10 1h2q35 0 52 -183q-34 -118 -34 -152l24 -105l38 -89q66 119 68 235q-52 119 -71 135z" />
    <glyph glyph-name="Z" unicode="Z" 
d="M357 618q88 201 188 311l239 283l1 30q0 9 -14 9q-31 0 -131 -43l-45 2q-45 19 -81 19q-102 0 -137 -152q-46 -195 -114 -195h-2l-76 1q-131 6 -131 122v3q1 64 32 118q-38 94 -38 146v3q53 228 318 228q26 0 55 -2l120 -5l89 -19q20 12 57 12q8 0 17 -1l30 -1
q14 -1 14 -14v-2q52 24 139 24q12 0 26 -1q266 -12 266 -145v-2q-3 -197 -291 -464q-4 1 -8 1q-84 0 -187 -208q-110 -148 -113 -286q14 -60 88 -64l90 -4q32 0 170 380l91 41q186 -9 186 -383v-28l-48 -192q-74 -142 -443 -142q-46 0 -97 2q-209 40 -281 43h-1
q-23 0 -150 -38q-84 4 -177 128q10 38 75 162.5t274 322.5z" />
    <glyph glyph-name="bracketleft" unicode="[" 
d="M69 1707q-2 29 -2 44q0 14 2 14q38 103 138 103q14 0 29 -2q106 -16 119 -16q153 10 241 10h27q109 -1 134 -178q-40 -127 -255 -127h-13l-75 -88v-14q-11 -491 -25 -629q30 -110 30 -148q-11 -532 -11 -578q21 -74 105 -75l179 -3q89 -53 89 -134q0 -108 -149 -188
q-347 15 -401 18h-16q-119 13 -119 105q0 176 44 237l15 29l-5 402q0 74 -44 236l44 132q0 570 -12 636t-69 214z" />
    <glyph glyph-name="backslash" unicode="\" 
d="M1069 -174q-157 211 -195 346q-165 118 -165 345q-131 81 -165 150q-78 206 -135 225q-226 311 -226 360q-270 461 -270 496v60q9 36 105 75q150 0 241 -225q171 -211 270 -496q255 -305 255 -450v-105q75 -105 135 -105l240 -390q150 -105 150 -181v-150
q-45 -75 -105 -75q-135 24 -135 120z" />
    <glyph glyph-name="bracketright" unicode="]" 
d="M488 1668q-2 29 -2 44q0 14 2 14q42 114 202 114h8l238 26q106 -16 119 -16h2q61 0 86 -174q-32 -101 -32 -171q0 -20 3 -38v-14q-11 -491 -25 -629q30 -110 30 -148q-11 -532 -11 -578q21 -74 36 -229q1 -18 1 -35q0 -122 -94 -136q-226 37 -286 38l-148 -42h-16
q-119 13 -119 105q0 176 358 259l15 29l-5 402q0 74 -44 236l44 132q1 56 1 107q0 555 -109 598l-105 1q-70 1 -149 105z" />
    <glyph glyph-name="asciicircum" unicode="^" 
d="M935 834q-57 -27 -97 -27q-48 0 -74 38l-131 398l-27 12q-1 1 -3 1q-26 0 -96 -214l-21 -35q-10 -81 -24 -146q-11 -54 -125 -54q-26 0 -57 3q-114 10 -114 72q0 30 26 71l54 92l55 63v5q0 23 21 57l13 23q5 8 12 8q4 0 8 -2q1 56 48 137q99 166 197 166q24 0 48 -10
q178 -73 300 -395q84 -85 101 -209q1 -15 1 -26q0 -54 -40 -54q-28 0 -75 26z" />
    <glyph glyph-name="underscore" unicode="_" 
d="M37 -176h44q222 34 379 34q128 0 212 -23q184 12 194 12q372 -43 372 -62v-151q-15 -38 -89 -38q-23 0 -239 13q-214 -32 -330 -32h-119q-469 7 -469 61v148q0 19 45 38z" />
    <glyph glyph-name="grave" unicode="`" 
d="M912 1166v-47q0 -18 -156 -189l156 -187v-31q-39 -63 -125 -63h-64q-201 123 -312 533v94q0 130 204 219q203 0 297 -329z" />
    <glyph glyph-name="a" unicode="a" 
d="M472 672q269 28 269 103q0 104 -120 104q-209 -36 -209 -149l-223 -88q-89 110 -89 164v30q127 267 388 267h148q387 -1 387 -388q29 0 29 -84v-6q-44 -163 -44 -253q177 -67 177 -163v-31q0 -163 -148 -163q-207 74 -223 74q-108 -73 -207 -73h-3l-59 15
q-141 -45 -164 -45q-311 124 -311 252v2q0 33 -16 164q1 94 135 179v3zM292 329v-14q0 -21 75 -76h14q417 49 418 237q-49 30 -90 30l-104 1q-12 0 -297 -118q-16 -27 -16 -60z" />
    <glyph glyph-name="b" unicode="b" 
d="M28 1513h14q384 -31 384 -185v-46l-16 -31q31 -184 92 -184q77 46 123 46h122q203 0 368 -369l46 -215q-2 -322 -355 -520q-58 -30 -162 -30h-7q-110 22 -184 77h-30q-56 -46 -108 -46h-45q-46 0 -92 200l31 291q-30 242 -30 276q17 109 17 123q-17 84 -17 122l17 107
q0 31 -184 124l-30 107v62q10 91 46 91zM409 547q85 -293 290 -293q169 0 170 368q0 169 -198 169h-31q-173 0 -231 -244z" />
    <glyph glyph-name="c" unicode="c" 
d="M718 1101q402 -90 402 -372v-1q-30 -90 -151 -179h-28q-152 0 -179 269q-101 89 -119 89q-283 -142 -283 -326v-45q14 -282 266 -284q239 0 239 164q64 59 120 59h14q105 -58 105 -74v-90q-1 -245 -449 -312h-74q-301 1 -476 418q1 548 344 641q95 43 233 43h36z" />
    <glyph glyph-name="d" unicode="d" 
d="M778 1498q259 0 259 -183h16q-16 -180 -16 -261l-1 -91q30 -371 30 -413l-1 -137q0 -111 122 -169q61 -64 61 -121q0 -89 -123 -122q-152 15 -228 16h-76q-132 0 -276 -15q-364 1 -441 459q0 300 154 520q151 151 258 151h17q53 0 183 -46q69 30 76 60v16
q-37 47 -290 138l-15 31v31q0 136 287 136h4zM409 461v-31q45 -183 214 -183q14 0 168 167v214q-43 244 -198 244q-162 0 -184 -411z" />
    <glyph glyph-name="e" unicode="e" 
d="M652 1141q467 -69 467 -268q32 -118 32 -220q-1 -96 -115 -157q-38 0 -160 63q-131 -93 -435 -93h-47q-33 -4 -33 -31q0 -121 305 -174h48q58 0 242 124q27 17 80 17h17q48 -1 64 -141q0 -214 -483 -282h-16q-307 59 -307 158q-63 58 -191 298v126q1 495 532 580z
M456 714q50 -31 92 -31q32 0 168 15l92 -15q76 25 76 92q0 82 -260 108q-139 -76 -168 -169z" />
    <glyph glyph-name="f" unicode="f" 
d="M1058 969q-4 -114 -206 -114h-24q-106 -32 -112 -208q-1 -27 -1 -53q0 -309 125 -313q222 -7 222 -122v-21q-3 -96 -124 -132q-108 -1 -203 -1q-253 0 -417 6l-105 3q-131 4 -131 130v40q1 20 78 73l61 -2l90 -18q104 39 138 102q1 47 1 239v228q-64 48 -120 50l-61 -14
q-132 23 -132 121v4l2 61q2 51 290 96q170 338 294 338h4q23 0 167 25l75 -3q189 -5 293 -280l-3 -75q-16 -34 -143 -65q-27 -6 -49 -6q-88 0 -124 96v6q0 84 -88 86q-102 -33 -123 -101v-3q0 -73 133 -76l15 -1q14 1 27 1q68 0 120 -34q41 -28 41 -47q0 -9 -10 -16z" />
    <glyph glyph-name="g" unicode="g" 
d="M1076 1116q84 -4 125 -123q-12 -271 -203 -271h-11l-16 -29l12 -74q-8 -182 -269 -247q-242 31 -296 31q-17 0 -17 -3q0 -4 40 -14q149 -41 316.5 -64.5t295.5 -99.5q124 -74 124 -151v-4l-4 -103q-4 -94 -257 -269q-155 -80 -191 -80h-1l-14 1q-48 2 -109 2
q-85 0 -195 -4q-339 161 -423 297l1 15q2 48 97 246q-24 50 -24 106v13l2 44q3 81 126 259l7 177q75 261 419 261q20 0 41 -1q1 12 50 12q10 0 23 -1q52 -31 114 -34l15 -1q163 109 220 109h2zM479 685v-5q0 -99 181 -150q75 41 77 100q1 13 1 25q0 195 -137 201h-4
q-96 0 -118 -171zM291 -13q32 -119 110 -123q171 20 212 20h6l29 -15q233 30 235 92l1 30q-101 137 -168 139h-17q-402 0 -408 -143z" />
    <glyph glyph-name="h" unicode="h" 
d="M638 149q0 -109 -194 -147q-49 31 -90 32q-179 -42 -251 -42h-3l-90 107l30 179q179 62 179 132q0 85 -15 105q15 194 15 313v345q-5 34 -134 76q-90 99 -90 166q0 66 254 71q195 -3 195 -212v-30q-30 -112 -30 -209q0 -30 45 -31q217 155 376 155q14 0 28 -1
q84 -10 224 -273l-15 -75q12 -110 45 -150v-314q121 -102 134 -197q-29 -163 -103 -163h-1q-464 8 -464 142l-15 89q38 51 150 89l-15 149l45 299q-53 91 -75 91q-9 2 -18 2q-114 0 -281 -262v-15q0 -299 89 -300q0 -24 59 -50l18 -71h-2z" />
    <glyph glyph-name="i" unicode="i" 
d="M743 1536q67 -71 67 -133v-18q0 -201 -168 -201q-150 48 -150 119q0 233 251 233zM609 1121q184 0 233 -138l-15 -109v-94q63 -154 63 -169q-79 -170 -79 -187q11 -155 110 -155l145 30q110 -30 110 -124q-44 -171 -220 -171q-47 0 -47 16l-268 -31q-153 31 -299 31
q-17 0 -48 -16q-174 53 -174 171q0 94 158 94l189 -15q71 0 111 123q-16 194 -16 216q16 197 16 234q-66 62 -158 62h-16l-158 -15q-77 62 -77 77v63q0 48 158 92l108 -15q9 0 174 30z" />
    <glyph glyph-name="j" unicode="j" 
d="M698 1531h32q156 0 171 -188q-56 -156 -233 -156h-2q-93 71 -93 141v95q0 23 125 108zM328 1121q150 -11 183 -11h5q25 0 188 20q267 -17 268 -52q-4 -444 -4 -601q0 -62 1 -79q0 -33 -19 -196l30 -281q-119 -323 -428 -330h-12q-192 0 -321 149q-32 51 -34 93l14 94
q-17 26 -17 79q56 155 90 158l110 2h4q120 0 125 -169q-27 -139 -27 -170v-2l31 -16l110 3q19 1 106 128l-33 62v66q0 202 12 764q-73 36 -228 36q-89 0 -205 -12l-24 91l-1 63v4q0 84 76 107z" />
    <glyph glyph-name="k" unicode="k" 
d="M520 -3h-31q-105 1 -186 16q-80 -15 -186 -15q-97 1 -108 125v31q187 144 187 154l1 465q0 89 -15 247q31 72 31 139q-54 70 -201 156v46q1 126 202 155q201 -29 201 -171q31 -101 31 -139q-1 -68 -32 -140q31 -74 31 -186q-31 -142 -32 -170l47 -31h15q41 13 140 231
q-31 51 -31 94q0 83 63 108q195 -16 263 -47q54 30 119 30h20q86 0 154 -108q0 -85 -325 -154q-109 -128 -109 -201q139 -373 278 -373h108q25 0 62 -62v-92q-1 -24 -109 -109l-372 1q-54 0 -124 54l7 107q102 31 103 118q-56 156 -139 186h-31q-58 -35 -109 -123v-31
q0 -72 137 -170l-2 -73q-28 -62 -58 -68z" />
    <glyph glyph-name="l" unicode="l" 
d="M272 1501q138 -27 138 -42l185 35q217 -38 217 -234q0 -192 15 -277q-15 -162 -15 -355v-46q-11 -68 -11 -120q0 -164 113 -164q41 0 97 21h5q100 0 149 -119q0 -185 -185 -190q0 -15 -15 -16q-530 7 -601 31l-92 -18h-8q-103 0 -177 70q-14 44 -14 77q0 69 60 96
q47 1 108 18q89 -11 155 -11q16 0 30 1q123 25 123 95q0 64 -16 169l16 139q0 39 -31 200q31 71 31 155l-31 107l15 77q-25 75 -90 75h-2q-65 -2 -154 -35q-185 62 -185 134q0 92 170 127z" />
    <glyph glyph-name="m" unicode="m" 
d="M531 16q-23 -10 -40 -10q-50 0 -50 83q0 5 1 11q4 125 19 151t45 84v10q0 67 -12 139l16 179q-8 163 -41 164h-30q-49 0 -74 -162v-16l14 -89q-46 -139 -46 -163v-33q0 -78 56 -103q17 0 32 -45q5 -15 5 -43q0 -56 -21 -165q-120 -11 -211 -11h-27q-158 27 -158 133v3
q75 208 76 237q0 10 -12 195q45 74 45 118v1q0 44 -112 284v14q49 103 117 103h1q40 0 130 -46q11 0 190 72l72 -1q104 -106 174 -107h1q34 0 131 72h43q259 -4 259 -237v-5q-18 -257 -19 -299v-9q0 -217 141 -365v-30q-56 -132 -147 -132h-1l-256 15q-20 88 -20 152
q0 84 34 127q58 76 59 141l3 209v3q0 113 -71 147h-29q-29 0 -104 -177v-6q0 -43 12 -218l-16 -59q27 -69 57 -76q42 -4 42 -89q0 -27 -4 -62q-13 -105 -148 -105q-53 0 -126 16z" />
    <glyph glyph-name="n" unicode="n" 
d="M173 1088h119l149 -135l285 134h45q252 -1 283 -315q15 -24 15 -75q-16 -202 -16 -298q0 -94 164 -180q0 -23 30 -60v-45q-16 -119 -105 -119q-195 16 -314 16h-90q-34 0 -74 134q48 65 194 179q16 81 16 135v256q0 147 -134 147l-60 1q-239 -203 -240 -478
q0 -89 135 -180l28 -104q0 -105 -268 -105l-150 1q-178 0 -178 134v1q0 84 179 179q16 195 16 314v179q-89 112 -89 179q20 105 60 105z" />
    <glyph glyph-name="o" unicode="o" 
d="M737 1121q155 0 319 -221l95 -298q-17 -135 -17 -220v-94q-205 -273 -416 -313q-490 1 -623 424q66 503 145 503q0 163 480 219h17zM383 546q0 -105 199 -301q219 0 287 156q57 60 57 143v15q-37 329 -214 329h-33q-296 0 -296 -242v-100z" />
    <glyph glyph-name="p" unicode="p" 
d="M779 1085q232 -1 368 -354q14 -195 14 -295v-13q0 -106 -77 -199q0 -180 -354 -230h-30q-132 31 -200 32q-15 -27 -15 -62v-1q0 -86 229 -214v-47q0 -107 -107 -107l-477 1q-107 0 -107 108v31q0 18 216 168q15 30 15 46q-14 516 -14 692l31 107v15q0 47 -215 93
q-45 59 -45 91v1q0 84 92 123l77 -16h77q34 0 61 15q26 -15 184 -31q216 46 277 46zM486 609v-3q0 -351 260 -397q185 80 185 322q16 0 31 46q-69 194 -184 247q-148 0 -292 -215z" />
    <glyph glyph-name="q" unicode="q" 
d="M720 1039q58 -19 89 -19q16 0 25 5q5 -3 11 -3q25 0 60 48l137 -15l77 16q92 -39 92 -123v-1q0 -32 -45 -91q-215 -46 -215 -93v-15l31 -107q0 -176 -14 -692q0 -16 15 -46q216 -150 216 -168v-31q0 -108 -107 -108q-102 -16 -179 -16q-249 0 -249 162q0 87 73 222
q0 35 -15 62q-68 -1 -200 -32h-30q-354 50 -354 230q-77 93 -77 199v13q0 100 14 295q136 353 368 354q61 0 277 -46zM282 525q0 -101 192 -290q211 0 277 151q55 57 55 138v14q-36 318 -207 318h-31q-286 0 -286 -234v-97z" />
    <glyph glyph-name="r" unicode="r" 
d="M978 1098q200 -57 200 -170q-59 -307 -109 -307h-46q-123 69 -123 231q-29 15 -46 15q-261 -101 -262 -429q15 -215 215 -216q77 -63 77 -78v-61q0 -21 -77 -77l-231 1q-62 0 -201 -31q-307 17 -307 93v77q0 36 247 77q61 67 62 431v30q0 184 -230 185l-46 46v76
q0 78 226 78h97q74 0 185 -109h15q81 123 308 123q0 15 46 15z" />
    <glyph glyph-name="s" unicode="s" 
d="M827 751v1q0 66 -411 143l-2 -111v-94q5 -31 32 -31h16q80 0 80 31l191 -31l313 -89q100 -117 100 -237q0 -228 -335 -339h-17l-158 16q-12 0 -96 -15q-86 31 -175 31q-102 -31 -112 -31q-111 38 -111 62v17q0 138 -32 262q1 96 80 139q56 -1 351 -248h238q93 0 143 106
q0 156 -429 156q-4 31 -111 47h-112q-159 127 -159 139v63q0 143 257 339l285 46q34 0 161 -47l95 15q206 0 206 -367v-4q0 -15 -38 -57l-203 11z" />
    <glyph glyph-name="t" unicode="t" 
d="M473 1426h115q50 -15 50 -93l-1 -246l82 -15l297 -1q81 -39 81 -123q0 -138 -163 -138h-2q-51 1 -163 62q-83 0 -133 -185v-46q0 -32 48 -199l-16 -108q34 -93 66 -93h50q181 67 181 261l49 31q90 -1 132 -77v-62q-35 -369 -281 -369q-110 -45 -131 -45h-1
q-296 70 -296 230v1q-32 83 -32 454v25q0 102 -130 152q-13 0 -100 -16q-115 32 -115 124v15q1 108 116 108l181 -1q66 21 66 139v169q0 22 50 46z" />
    <glyph glyph-name="u" unicode="u" 
d="M145 1103q246 0 246 -217q0 -40 30 -122q-30 -107 -30 -185v-124q0 -148 139 -169h30q156 0 200 154q94 154 94 324q0 107 -248 122q0 10 -61 78v77q0 34 124 62q385 0 385 -139l15 -30q0 -17 -15 -48l15 -107q0 -41 -31 -354q0 -185 153 -185q124 0 124 -108v-16
q-96 -154 -215 -154q-262 78 -262 185h-62q-160 -153 -231 -153h-170q-215 151 -215 322q0 126 15 294q0 293 -169 293l-31 46v76q0 55 170 78z" />
    <glyph glyph-name="v" unicode="v" 
d="M97 1096q77 3 142 3q342 0 342 -93q0 -10 -3 -20l-2 -62q-40 -94 -51 -94q55 -376 94 -376h31q43 0 157 376l1 31q-107 73 -130 135q22 100 301 100h27q125 0 149 -172q-2 -48 -167 -266q-234 -653 -262 -658h-204q-26 11 -85 219q-151 308 -151 498v19
q-100 132 -198 141q-55 77 -55 161v11z" />
    <glyph glyph-name="w" unicode="w" 
d="M1000 1105h1q181 -5 231 -153q-84 -84 -92 -421q26 -52 26 -100q-85 -40 -134 -302q-61 -77 -148 -128l-18 1q-125 76 -125 139l19 150q-40 1 -88 204q-9 14 -19 14q-58 0 -153 -459q-65 -46 -110 -46h-2l-72 2q-80 25 -155 529q-64 121 -125 332q-44 2 -51 122
q30 80 147 107h8l29 -1q43 -1 184 -49l34 -35l9 -121l1 -2q-54 -64 -55 -120l-1 -30l17 -90l45 -1q32 0 80 86q-20 101 -53 137q-11 63 -11 106q0 77 36 91q56 20 85 20q104 -31 134 -32q47 26 63 26q68 -43 94 -56l-4 -100q-24 -65 -24 -98q47 -220 87 -220h30
q21 92 21 107q-18 162 -70 163l-7 8q-3 35 -3 64q0 103 41 126q53 30 98 30z" />
    <glyph glyph-name="x" unicode="x" 
d="M910 1091q31 2 60 2q163 0 214 -81v-47q-2 -111 -204 -146q-176 -202 -177 -256q143 -300 284 -305q157 -33 157 -159v-18q-1 -22 -88 -89l-379 45q-26 -14 -41 -14h-2q-24 71 -24 96l17 138q-56 94 -56 125v1h-9q-107 0 -108 -119l-1 -31q56 -66 56 -124v-2
q-2 -107 -331 -107q-48 0 -103 2q-65 15 -157 114q12 92 30 92h17q197 0 332 202h3q65 0 129 149v1q0 105 -297 339l-58 2h-59l-43 64l1 46v5q0 85 180 85q108 0 283 -31q56 -71 56 -80q-15 -81 -15 -92q37 -105 84 -128h15q73 40 74 120q-23 1 -57 65l1 46q1 73 216 90z
" />
    <glyph glyph-name="y" unicode="y" 
d="M578 1091q103 0 103 -103v-133q-49 -74 -59 -74q36 -207 147 -207q41 0 59 148v30q0 25 -73 147q20 177 103 177l236 15q89 -26 89 -133q-177 -649 -325 -812q0 -190 -192 -487q-72 -44 -192 -44h-133q-221 46 -221 207v177q61 118 148 118h147q74 -35 74 -74
q-30 -48 -30 -89v-44q5 -29 30 -29h15q74 38 74 118v221l-163 163v29q0 33 15 59q-74 369 -251 369q0 8 -59 74v44q0 118 458 133z" />
    <glyph glyph-name="z" unicode="z" 
d="M353 1103l78 -15h31q138 0 311 -16l124 31q202 0 202 -155q0 -51 -389 -451q-217 -178 -217 -248l31 -47q388 36 388 155q0 156 109 156q79 0 140 -264q0 -125 -280 -249q-218 16 -373 16h-155l-93 -16q-97 0 -140 78v15q0 132 186 280q95 154 404 435v31q0 31 -171 62
q-186 -105 -186 -295l-47 -31h-62q-108 54 -108 140q0 278 217 388z" />
    <glyph glyph-name="braceleft" unicode="{" 
d="M646 374q-84 -114 -84 -138q-49 -111 -49 -165q0 -48 40 -48l179 -3q89 -53 89 -134q0 -108 -149 -188q-429 44 -477 389l195 422q-95 21 -253 75q-76 48 -76 205q0 151 330 262q-96 296 -96 457q0 146 79 205q197 147 287 147h2q109 -1 134 -178q-40 -127 -255 -127h-13
l50 -176v-14q66 -101 66 -186v-5q-9 -297 -255 -362q-50 -14 -104 -37l104 -32q258 -62 258 -326q0 -21 -2 -43z" />
    <glyph glyph-name="bar" unicode="|" 
d="M690 -282q-22 -12 -50 -12q-35 0 -79 20l-77 113q-14 20 -14 51q0 57 49 153l3 401q52 28 62 140l-55 79q-41 60 -41 192q0 107 27 262q-40 163 -40 316q0 91 14 178q-9 48 -9 89q0 138 99 190q39 5 67 5q46 0 62 -14l31 -45q18 -26 25 -495q11 -16 11 -91
q0 -94 -18 -282q-19 -20 -19 -76q0 -58 20 -154q1 -6 1 -12q0 -66 -65 -175q70 -101 70 -200q0 -68 -33 -134q23 -71 23 -180q0 -75 -11 -168q16 -24 16 -48q0 -50 -69 -103z" />
    <glyph glyph-name="braceright" unicode="}" 
d="M828 698l106 15q-104 26 -194 36q-252 44 -252 287q0 18 2 36q260 354 260 421q0 15 -14 15h-2l-127 55q-70 1 -149 105q-2 29 -2 44q0 14 2 14q42 114 202 114h8q295 -4 354 -373v-14q-32 -135 -257 -447q415 -117 415 -240q0 -14 -6 -29q11 -29 11 -55
q0 -107 -183 -168q-219 -36 -219 -107q0 -12 11 -23l120 -164q87 -132 87 -228q0 -83 -65 -138q-140 -118 -200 -118h-1l-148 -42h-16q-119 13 -119 105q0 176 201 218q77 16 77 59q0 67 -192 201l-49 80q1 253 270 331q39 2 69 10z" />
    <glyph glyph-name="asciitilde" unicode="~" 
d="M666 1451q105 -28 172 -28q27 -10 49 -10q67 0 76 58q6 39 70 39q30 0 74 -9h26q17 0 17 -58q0 -42 -9 -116q-26 -137 -318 -149q-237 1 -291 86l-216 22q-56 -96 -195 -96q-26 0 -54 3q-7 27 -7 51q0 19 4 36l26 101q18 65 279 136q251 -66 297 -66z" />
    <glyph glyph-name="uni00A0" unicode="&#xa0;" 
 />
    <glyph glyph-name="exclamdown" unicode="&#xa1;" 
d="M425 968v106q0 130 188 130q69 0 176 -165v-36q-63 -176 -106 -176h-129q-97 0 -129 141zM737 457v-9q18 -117 18 -199v-22l21 -113l3 6q-9 -75 -16 -124v-2q0 -15 15 -68l-11 -34q1 -30 2 -64.5t1 -74.5q-90 -85 -161 -85q-136 0 -177 114q2 69 3 89h-1q0 50 2 63
q2 32 2 70q-3 79 -4 79q4 124 41 439h1q27 241 88 241q9 0 19 -5q21 20 40 20q69 0 104 -278q10 -18 10 -43z" />
    <glyph glyph-name="cent" unicode="&#xa2;" 
d="M481 1071q2 69 13 136q-9 48 -9 89q3 52 102 104q39 5 67 5q46 0 62 -14l31 -45q15 -22 19 -257q354 -95 354 -360v-1q-30 -90 -151 -179h-28q-152 0 -179 269q-101 89 -119 89q-283 -142 -283 -326v-45q14 -282 266 -284q239 0 239 164q64 59 120 59h14q105 -58 105 -74
v-90q-1 -215 -345 -293q-1 -69 -11 -153q16 -24 16 -48q0 -50 -69 -103q-22 -12 -50 -12q-35 0 -79 20l-77 113q-14 20 -14 51q0 47 33 120q-250 46 -403 411q1 548 344 641q15 7 32 13z" />
    <glyph glyph-name="sterling" unicode="&#xa3;" 
d="M376 902q4 37 4 65l-43 89q-65 83 -65 130q-1 15 -1 29q0 159 126 228q112 62 271 62q26 0 54 -2h14q330 -38 342 -297q-86 -96 -141 -96q-44 0 -67 60q-51 124 -112 124q-5 0 -10 -1h-2q-68 19 -114 19q-98 0 -98 -87q0 -21 5 -46q54 -101 82 -195v-2q-1 -41 -6 -122
q19 -3 34 -3h37q58 0 72 90l102 -1h19q28 -2 28 -50q0 -44 -22 -124q-17 -126 -192 -126q-15 0 -32 1q-15 0 -30 1l-33 -138q-9 -112 -54 -191q-9 -17 -9 -28q0 -30 61 -30q32 0 81 8q7 0 59 15q100 -17 161 -18q78 99 81 131v16q0 17 -27 71q2 83 61 107l58 -1
q109 -21 116 -64l-1 -61q-2 -98 -38 -142l13 -92q-2 -114 -165 -258l-88 2q-56 47 -87 47h-6q-43 0 -214 -12l-59 17q-159 -27 -216 -27h-4q-291 5 -291 125v2q2 107 163 135l26 -5q51 19 99 102l1 30q24 55 24 101q29 91 29 187v23l-151 28q-42 -96 -147 -96q-20 0 -41 3
q-6 27 -6 50q0 20 4 37l20 101q13 65 209 136q49 -17 116 -57z" />
    <glyph glyph-name="currency" unicode="&#xa4;" 
d="M743 1153q174 0 357 -223l107 -301q-19 -137 -19 -223v-95q-230 -276 -466 -316q-550 1 -699 428q74 509 163 509q0 164 538 221h19zM878 795q-104 0 -104 -82v-10q0 -37 76 -66h11q47 0 98 66q-19 92 -81 92zM437 794h-37q-84 0 -84 -84q0 -43 47 -69h53q61 0 85 90
q0 63 -64 63zM390 261q38 -78 254 -78q42 0 90 3q158 19 178 189q-36 59 -86 59q-37 0 -61 -35l-1 -71q-1 -26 -107 -26q-29 0 -66 2h-6l-80 32v3q0 87 -59 103q-101 -10 -101 -53v-2q0 -35 45 -126z" />
    <glyph glyph-name="yen" unicode="&#xa5;" 
d="M361 878q-37 66 -84 145v1q0 76 -192 171q0 24 -52 61l-23 152q88 95 257 95h17l182 -6q37 -44 69 -44q5 0 10 1h2q35 0 52 -183q-34 -118 -34 -152l24 -105l38 -89q66 119 68 235q-52 119 -71 135l-6 114q124 87 325 87h30q18 -1 34 -1q71 0 109 11q115 -87 115 -152v-1
q-2 -139 -250 -232q-16 -62 -120 -250q316 -41 316 -59v-146q-14 -37 -80 -37q-21 0 -216 13q-49 -8 -92 -14q-11 -45 -25 -100q-3 -18 -4 -35l354 -28q76 -7 76 -68q0 -21 -9 -49q0 -123 -264 -123h-15l-138 19v-137l-21 -102l-211 -6q-77 38 -77 90v1q19 78 30 141
q-387 9 -387 89q-15 0 -15 11v136q250 13 412 19l9 65v1q0 21 -13 59h-14q-422 7 -422 59v144q0 18 41 36h39q124 20 226 28z" />
    <glyph glyph-name="brokenbar" unicode="&#xa6;" 
d="M584 1005l-55 54q-41 40 -41 130q0 73 27 178q-40 110 -40 214q0 62 14 121q-9 33 -9 61q0 93 99 129q39 3 67 3q46 0 62 -10l31 -30q18 -18 25 -336q11 -11 11 -62q0 -64 -18 -191q-19 -14 -19 -52q0 -39 20 -105q1 -4 1 -8q0 -41 -55 -107l-121 5q1 3 1 6zM764 390
q0 -72 -35 -142q24 -75 24 -191q0 -79 -11 -178q17 -26 17 -51q0 -53 -74 -109q-23 -13 -53 -13q-37 0 -84 21l-82 120q-15 21 -15 54q0 61 52 162l3 426q45 23 52.5 64t134.5 44q71 -104 71 -207z" />
    <glyph glyph-name="section" unicode="&#xa7;" 
d="M287 1167q-68 60 -107 160q0 56 -13 75q37 182 195 285l92 25h181l224 3h26q71 0 104 -62q0 -26 11 -152l13 -149q-16 -42 -47 -42q-10 0 -22 5h-78q-32 0 -42 127q-29 0 -64 47q-156 10 -189 10h-52q-106 -63 -106 -83v-62q77 -97 366 -126l172 -58q66 -50 153 -277
q0 -141 -115 -273q45 -81 82 -216q0 -201 -234 -384q-64 0 -247 -25l-350 34q-82 25 -92 62q-7 110 -7 186q0 77 7 121v50q0 17 39 37h14q116 0 180 -180q121 -75 209 -75h65q136 0 169 174q-33 65 -74 101q-59 -2 -139 -6l-258 86q-153 99 -169 157q-1 4 -1 7q0 6 3 11
q-22 35 -39 78q0 56 -13 75q32 156 153 254zM577 1071q-103 -5 -234 -121q31 -94 68 -155l3 -1q94 -85 198 -101h121q91 27 124 200q-77 149 -196 149q0 11 -84 29z" />
    <glyph glyph-name="dieresis" unicode="&#xa8;" 
d="M1118 1668q-112 -144 -216 -144h-24q-168 63 -168 144v24q0 180 228 180q138 0 180 -204zM542 1732q-52 -196 -185 -196h-115q-104 57 -104 150q0 184 185 184h80q139 0 139 -138z" />
    <glyph glyph-name="copyright" unicode="&#xa9;" 
d="M619 1124q46 -9 135 -44q34 10 69 36h32q30 0 61 -81q-19 -70 -19 -138q0 -9 18 -85q-29 -82 -74 -96q-82 0 -150 189q-42 23 -57 23h-24q-147 -23 -147 -216q-9 -12 -9 -24q30 -155 137 -155h51q57 0 90 77q42 68 104 98q50 -15 79 -97q-54 -251 -153 -251
q-53 -53 -156 -53q-278 67 -278 197q-3 0 -34 84q0 379 110 442q0 55 194 94h21zM547 1491q378 0 496 -240q101 0 191 -496q-91 -567 -195 -567q0 -170 -495 -198q-457 173 -457 397q0 13 -106 219v26q30 101 30 152q0 28 -16 160q260 491 409 491q68 56 143 56zM202 828
v-93q116 -478 205 -478q201 -77 244 -77h115q271 221 271 662l-157 368l-269 90q-409 -231 -409 -472z" />
    <glyph glyph-name="ordfeminine" unicode="&#xaa;" 
d="M532 1649q151 15 151 36q0 37 -50 37q-100 -17 -100 -52q0 -4 1 -8q-147 -41 -204 -41q-27 0 -34 9q-24 28 -24 75v27q93 193 274 193h95q272 -1 272 -248q19 0 19 -84v-9q-28 -104 -28 -135q113 -43 113 -126v-20q0 -134 -124 -134q-132 47 -133 47q-69 -47 -138 -47h-5
l-34 9q-88 -28 -110 -28q-220 87 -220 191v2q0 19 -10 103q1 80 86 134v7zM445 1400v-9q4 0 30 -19h1q243 28 244 104q-12 7 -33 7h-66q-4 0 -175 -70q-1 -2 -1 -13z" />
    <glyph glyph-name="guillemotleft" unicode="&#xab;" 
d="M765 165q-11 -57 -105 -57q-82 0 -254 38q-126 110 -233 154q-162 128 -162 292q4 110 317 319q206 179 414 188h3q34 0 34 -92q-7 -107 -12 -107q-1 0 -2 6q-13 6 -30 6q-129 0 -515 -310v-40q0 -91 511 -311q39 -12 39 -35q0 -43 -5 -51zM1195 331q0 -20 11 -168
q3 -15 3 -27q0 -37 -25 -51q-28 71 -333 159q-60 65 -263 107q-163 117 -163 268q0 164 426 303q17 42 319 166q8 14 14 14q16 0 16 -34q0 -11 -2 -26q-7 -130 -7 -155q4 -10 4 -17q0 -17 -23 -17q-129 -6 -536 -240v-36q0 -84 545 -192q14 0 14 -54z" />
    <glyph glyph-name="logicalnot" unicode="&#xac;" 
d="M124 1111q74 0 216 44l132 -44q307 0 373 12t214 69q29 2 44 2q14 0 14 -2q103 -38 103 -138q0 -14 -2 -29q-16 -106 -16 -119q10 -153 10 -241v-27q-1 -109 -178 -134q-127 40 -127 255v13l-88 75h-14q-228 11 -366 25q-110 -30 -148 -30q-182 4 -248 6q-47 1 -47 66
q0 27 9 66q27 130 119 131z" />
    <glyph glyph-name="registered" unicode="&#xae;" 
d="M662 409v-13q13 -18 13 -32q0 -24 -41 -33q-41 -11 -77 -11h-12q-36 2 -59 2q-31 0 -42 -4q-97 5 -162 142q2 54 113 112l10 42q-9 21 -9 71q0 9 1 18q2 21 20 54q-8 63 -8 88v6q1 8 9 59v2q0 41 -72 45q-27 57 -27 87v9q34 85 134 85q8 0 13 -1q33 2 67 2q47 0 91 -3
q233 -11 233 -69q54 -44 54 -149v-12q-5 -112 -77 -222q12 -25 12 -73q0 -18 -2 -39q84 0 125 -97l-45 -96q-50 -52 -86 -52q-27 -3 -51 -3q-87 0 -113 57l-31 213v6q0 20 -14 27q-20 -6 -21 -27l-1 -19q-4 -16 -4 -26q0 -26 20 -35h1q7 0 22 -17q16 -20 16 -94zM595 938
l2 -34q0 -28 -15 -63h19q121 0 123 65l1 11v1q0 17 -47 23q-10 1 -18 1q-50 0 -65 -4zM547 1491q378 0 496 -240q101 0 191 -496q-91 -567 -195 -567q0 -170 -495 -198q-457 173 -457 397q0 13 -106 219v26q30 101 30 152q0 28 -16 160q260 491 409 491q68 56 143 56z
M202 828v-93q116 -478 205 -478q201 -77 244 -77h115q271 221 271 662l-157 368l-269 90q-409 -231 -409 -472z" />
    <glyph glyph-name="macron" unicode="&#xaf;" 
d="M165 1867h35q172 32 295 32q100 0 165 -21q145 11 151 11q291 -40 291 -57v-141q-11 -35 -70 -35q-18 0 -186 12q-167 -30 -257 -30h-94q-365 6 -365 57v137q0 18 35 35z" />
    <glyph glyph-name="degree" unicode="&#xb0;" 
d="M671 1732q112 0 229 -157l66 -207q-12 -92 -12 -145v-72q-146 -194 -293 -222q-337 0 -432 302q48 359 95 359q0 103 335 142h12zM467 1329q0 -54 113 -165q118 0 157 90q32 33 32 74v7q-21 186 -114 186h-20q-168 0 -168 -127v-65z" />
    <glyph glyph-name="plusminus" unicode="&#xb1;" 
d="M470 710q-103 -10 -179 -10q-215 0 -215 81q-15 0 -15 15q0 92 160 219q143 6 251 10v1q-51 77 -51 150q0 43 18 84q-11 23 -11 42q0 64 128 89q52 3 88 3q58 0 79 -7l40 -21q24 -12 33 -234q14 -8 14 -43q0 -23 -6 -59q355 -10 355 -131v-60q0 -139 -143 -139
q-38 0 -85 10l-153 15q9 -29 9 -53q0 -45 -34 -71q29 -33 29 -86q0 -35 -13 -78q21 -11 21 -22q0 -24 -91 -50q-28 -5 -63 -5q-46 0 -103 9l-101 54q-16 9 -16 47q0 71 54 240zM221 10q-160 120 -160 207q0 14 15 14q0 110 438 110l190 -28l176 28q279 0 279 -165v-57
q0 -124 -425 -124q-133 0 -513 15z" />
    <glyph glyph-name="uni00B2" unicode="&#xb2;" 
d="M602 1930h14q171 0 234 -129q38 -96 38 -117q-56 -258 -209 -258l-115 -63q73 -11 102 -11q10 0 142 14q43 -14 66 -56v-17q0 -142 -112 -142q-60 14 -73 14q-64 -14 -94 -14h-14q-244 11 -244 62q-14 23 -14 53v21q0 130 213 268q147 48 147 143q-18 24 -39 24h-14
q-81 0 -81 -57q-34 0 -114 -84h-23q-21 0 -85 110q79 232 208 232q0 7 67 7z" />
    <glyph glyph-name="uni00B3" unicode="&#xb3;" 
d="M745 1930q73 -27 73 -60l-1 -52q-49 -68 -85 -99q-12 -11 -12 -20q0 -16 47 -25q70 -13 70 -112q4 -29 4 -84q0 -20 -1 -43q-3 -83 -64 -123q-46 -121 -361 -234q-86 23 -86 99v31q3 97 253 146q69 56 70 79v8q0 79 -41 122l-133 -51q-59 0 -69 90q1 72 115 124
q25 17 25 21q0 1 -3 1q-5 0 -18 -4h-2q-37 0 -129 -46q-73 27 -73 60l1 36q3 114 137 129l70 -2q35 -1 70 -9q113 7 143 18z" />
    <glyph glyph-name="acute" unicode="&#xb4;" 
d="M401 1205v73q45 197 180 197h12q42 19 91 19q21 -9 40 -19h37q36 0 82 -89q35 -42 41 -91q12 -30 25 -66v-49q-22 -34 -43 -63q-107 -347 -290 -459h-62q-85 0 -124 62v31l155 185q-17 19 -33 36q-95 35 -109 127q-13 18 -13 23v47q5 19 11 36z" />
    <glyph glyph-name="mu" unicode="&#xb5;" 
d="M408 -6q-3 -14 -3 -30q73 -135 73 -222q0 -162 -249 -162q-77 0 -179 16q-107 0 -107 108v31q0 18 216 168q15 30 15 46q-5 174 -8 309q-6 29 -6 58q0 126 15 294q0 293 -169 293l-31 46v76q0 55 170 78q246 0 246 -217q0 -40 30 -122q-30 -107 -30 -185v-124
q0 -148 139 -169h30q156 0 200 154q94 154 94 324q0 107 -248 122q0 10 -61 78v77q0 34 124 62q385 0 385 -139l15 -30q0 -17 -15 -48l15 -107q0 -41 -31 -354q0 -185 153 -185q124 0 124 -108v-16q-96 -154 -215 -154q-262 78 -262 185h-62q-160 -153 -231 -153h-137z" />
    <glyph glyph-name="paragraph" unicode="&#xb6;" 
d="M785 1279q-60 0 -60 -46q0 -16 7 -37l-1 -15l26 -64q-2 -179 -19 -748v-4q0 -36 11 -323q3 -6 3 -12q0 -33 -123 -33q-74 0 -194 12q-90 0 -90 106v2l1 48q196 132 196 219q-9 428 -21 456q-57 -1 -88 -24h-27q-280 63 -331 169q-34 108 -34 133t18 141q121 252 300 252
q15 0 30 -2q52 0 169 -7q38 -3 67 -3q56 0 71 10q23 -15 51 -15h65l101 1q8 5 17 9q33 4 57 4q38 0 52 -10l26 -31q14 -18 17 -343q9 -10 9 -50q0 -57 -18 -172q-16 -13 -16 -53t16 -106q5 -46 24 -164q4 -26 4 -51q0 -92 -55 -180v-10q0 -129 149 -129q10 -46 10 -83
q0 -90 -62 -130q-60 -4 -107 -4q-94 0 -138 16l-64 78q-12 14 -12 35q0 40 43 107l-26 262l40 202q-34 40 -34 118q0 66 25 160q-31 109 -31 211q0 46 6 90q-35 8 -60 8z" />
    <glyph glyph-name="periodcentered" unicode="&#xb7;" 
d="M562 904h115q38 0 94 -157v-31q-96 -147 -157 -147q-167 0 -167 115v94q29 126 115 126z" />
    <glyph glyph-name="cedilla" unicode="&#xb8;" 
d="M757 -35q23 -23 78 -37l75 -6q90 -39 90 -79v-6q28 -31 28 -77t-27 -107l-2 -1q-28 -29 -87 -75q-21 -17 -46 -37q-52 -39 -113 -39q-28 0 -57 8q-41 -14 -91 -14q-162 0 -418 150q-18 30 -18 56q0 35 34 62l2 2l31 24q26 20 64 20q81 0 215 -88q65 -27 108 -27
q30 0 49 14l10 7q62 16 62 24q0 6 -33 9h-1q-9 9 -103 35q-97 15 -128 15q-10 0 -13 -1q-48 34 -53 50l3 80q67 50 67 119q0 29 -11 60q2 5 36 5q26 0 72 -3l160 -29q-1 -1 -3 -1q-3 -43 -7 -79q10 -20 13 -31z" />
    <glyph glyph-name="uni00B9" unicode="&#xb9;" 
d="M677 1930h22q50 0 62 -147q-8 -96 -8 -145l17 -30q-18 -16 -23 -73q14 -22 14 -48q-15 -92 -15 -104q22 -36 22 -71q-29 -166 -113 -166q-91 0 -91 66q0 35 6 44l-6 26q8 201 8 332h-57q-104 14 -104 67v44q0 73 121 114q67 91 145 91z" />
    <glyph glyph-name="ordmasculine" unicode="&#xba;" 
d="M589 1943q184 0 239 -119q50 0 95 -262q-45 -296 -91 -296q0 -85 -246 -99q-226 90 -226 213q0 2 -49 104v20q14 50 14 72q0 13 -8 83q128 256 200 256q32 28 72 28zM494 1597v-31q36 -156 56 -156q69 -28 81 -28h34q81 70 81 216l-49 122l-78 28q-125 -75 -125 -151z
" />
    <glyph glyph-name="guillemotright" unicode="&#xbb;" 
d="M15 282q0 23 39 35q514 154 514 245v40q-376 233 -509 233q-23 0 -39 -7l-1 -4q-6 0 -9 183q0 92 33 92h4q288 -130 305 -176q426 -151 426 -331q0 -164 -104 -180q-313 -140 -322 -228q-142 -76 -223 -76q-95 0 -105 57q-5 8 -9 117zM419 202q0 47 14 47
q564 244 564 328v36q-399 312 -527 318q-23 0 -23 18q0 7 3 16q0 25 -14 77q-2 17 -2 28q0 32 15 32q7 0 15 -14q68 14 110 14q54 0 64 -24q570 -295 570 -459q0 -151 -162 -268q-142 -62 -225 -135q-178 -106 -371 -131q-26 14 -26 51q0 12 3 27q-8 11 -8 28v11z" />
    <glyph glyph-name="onequarter" unicode="&#xbc;" 
d="M37 602l42 17q334 181 523 225q158 73 167 77q354 116 454 139l9 -137v-4q0 -44 -79 -75q-21 -10 -219 -82q-175 -95 -279 -138l-107 -44q-280 -111 -424 -138q-41 -7 -82 -7q-20 0 -41 2l-1 91q-2 4 -2 16q0 27 39 58zM574 1625h22q50 0 62 -147q-8 -96 -8 -145l17 -30
q-18 -16 -23 -73q14 -22 14 -48q-15 -92 -15 -104q22 -36 22 -71q-29 -166 -113 -166q-91 0 -91 66q0 35 6 44l-6 26q8 201 8 318v14h-57q-104 14 -104 67v44q0 73 121 114q67 91 145 91zM772 668q81 -50 81 -174q-7 -141 -7 -252v-28q0 5 27 5q20 0 55 -3q43 -44 43 -83
v-14q0 -65 -122 -112l-3 -10q28 -54 28 -94q-56 -74 -115 -74q-76 0 -116 115q8 65 8 73q-13 6 -30 6q-21 0 -48 -9q-133 0 -158 101v51q30 91 60 155q91 110 205 310q68 26 92 37zM646 258l3 -1q35 5 45 44q-1 14 -7 14t-16 -15q-21 -30 -25 -42z" />
    <glyph glyph-name="onehalf" unicode="&#xbd;" 
d="M37 602l42 17q334 181 523 225q158 73 167 77q354 116 454 139l9 -137v-4q0 -44 -79 -75q-21 -10 -219 -82q-175 -95 -279 -138l-107 -44q-280 -111 -424 -138q-41 -7 -82 -7q-20 0 -41 2l-1 91q-2 4 -2 16q0 27 39 58zM574 1625h22q50 0 62 -147q-8 -96 -8 -145l17 -30
q-18 -16 -23 -73q14 -22 14 -48q-15 -92 -15 -104q22 -36 22 -71q-29 -166 -113 -166q-91 0 -91 66q0 35 6 44l-6 26q8 201 8 318v14h-57q-104 14 -104 67v44q0 73 121 114q67 91 145 91zM719 641h14q171 0 234 -129q38 -96 38 -117q-56 -258 -209 -258l-115 -63
q73 -11 102 -11q10 0 142 14q43 -14 66 -56v-17q0 -142 -112 -142q-60 14 -73 14q-64 -14 -94 -14h-14q-244 11 -244 62q-14 23 -14 53v21q0 130 213 268q147 48 147 143q-18 24 -39 24h-14q-81 0 -81 -57q-34 0 -114 -84h-23q-21 0 -85 110q35 161 165 196z" />
    <glyph glyph-name="threequarters" unicode="&#xbe;" 
d="M37 602l42 17q334 181 523 225q158 73 167 77q354 116 454 139l9 -137v-4q0 -44 -79 -75q-21 -10 -219 -82q-175 -95 -279 -138l-107 -44q-280 -111 -424 -138q-41 -7 -82 -7q-20 0 -41 2l-1 91q-2 4 -2 16q0 27 39 58zM772 668q81 -50 81 -174q-7 -141 -7 -252v-28
q0 5 27 5q20 0 55 -3q43 -44 43 -83v-14q0 -65 -122 -112l-3 -10q28 -54 28 -94q-56 -74 -115 -74q-76 0 -116 115q8 65 8 73q-13 6 -30 6q-21 0 -48 -9q-133 0 -158 101v51q30 91 60 155q91 110 205 310q68 26 92 37zM646 258l3 -1q35 5 45 44q-1 14 -7 14t-16 -15
q-21 -30 -25 -42zM710 1635q73 -27 73 -60l-1 -52q-49 -68 -121 -120q141 -37 141 -136q4 -29 4 -84q0 -20 -1 -43q-3 -83 -64 -123q-46 -121 -361 -234q-86 23 -86 99v31q3 97 253 146q69 56 70 79v8q0 79 -33 122q-8 0 -141 -51q-59 0 -69 90q1 72 115 124q25 17 25 21
q0 1 -3 1q-5 0 -18 -4h-2q-37 0 -129 -46q-73 27 -73 60l1 36q3 114 137 129l70 -2q35 -1 70 -9q113 7 143 18z" />
    <glyph glyph-name="questiondown" unicode="&#xbf;" 
d="M643 853h-105q-51 0 -111 160v43q100 147 168 147q178 0 178 -130v-85q-32 -135 -130 -135zM496 458q9 0 9 19q0 50 -62 233l45 88q314 0 314 -139q13 -25 13 -56q0 -114 -182 -302q-119 -163 -119 -297v-22q57 -85 144 -148q87 0 154 86q-97 36 -97 158q58 124 126 136
h46q53 0 151 -152v-38q0 -391 -391 -391q-321 0 -435 300v73q13 63 29 100q70 145 255 352z" />
    <glyph glyph-name="Agrave" unicode="&#xc0;" 
d="M923 696q73 -372 132 -372q200 -31 200 -143v-3q-5 -178 -333 -178h-32q-231 0 -231 142v4q8 55 130 161v6q0 124 -122 124h-16q-3 0 -4 -32q-219 -21 -220 -65l-1 -33q121 -136 121 -161q-3 -119 -207 -146l-78 16l-78 -16q-199 0 -199 170v8q32 39 32 65
q222 82 225 210q51 388 90 388q74 453 137 453q6 227 131 227h16q141 -74 307 -825zM585 1099q-22 0 -40 -80q-66 -210 -66 -252q0 -53 146 -66q79 0 79 172q-90 226 -119 226zM527 1881q76 -74 159 -117q94 -40 94 -113q0 -28 -13 -60q-22 -42 -51 -88q-109 19 -261 65
q-181 56 -222 279l6 12q78 41 137 46z" />
    <glyph glyph-name="Aacute" unicode="&#xc1;" 
d="M585 1099q-22 0 -40 -80q-66 -210 -66 -252q0 -53 146 -66q79 0 79 172q-90 226 -119 226zM533 1498q-107 28 -126 65q-8 16 -8 32q0 77 171 164q111 127 202 134h72q59 -6 138 -49l6 -12q-42 -236 -223 -294q-75 -24 -123 -36q130 -124 281 -806q73 -372 132 -372
q200 -31 200 -143v-3q-5 -178 -333 -178h-32q-231 0 -231 142v4q8 55 130 161v6q0 124 -122 124h-16q-3 0 -4 -32q-219 -21 -220 -65l-1 -33q121 -136 121 -161q-3 -119 -207 -146l-78 16l-78 -16q-199 0 -199 170v8q32 39 32 65q222 82 225 210q51 388 90 388
q74 453 137 453q4 155 64 204z" />
    <glyph glyph-name="Acircumflex" unicode="&#xc2;" 
d="M923 696q73 -372 132 -372q200 -31 200 -143v-3q-5 -178 -333 -178h-32q-231 0 -231 142v4q8 55 130 161v6q0 124 -122 124h-16q-3 0 -4 -32q-219 -21 -220 -65l-1 -33q121 -136 121 -161q-3 -119 -207 -146l-78 16l-78 -16q-199 0 -199 170v8q32 39 32 65
q222 82 225 210q51 388 90 388q74 453 137 453q6 227 131 227h16q141 -74 307 -825zM585 1099q-22 0 -40 -80q-66 -210 -66 -252q0 -53 146 -66q79 0 79 172q-90 226 -119 226zM763 1499q-95 2 -95 50q0 15 9 34q-60 93 -99 93v-5q0 -36 -68 -104q-1 -13 -32 -68h-17
q-51 0 -106 -5q-16 -1 -29 -1q-42 0 -62 14q-14 9 -14 31q0 23 15 61q19 66 142 152q12 53 100 127l74 35q174 -63 271 -210q74 -112 74 -156q0 -14 -7 -21q-28 -27 -134 -27h-22z" />
    <glyph glyph-name="Atilde" unicode="&#xc3;" 
d="M923 696q73 -372 132 -372q200 -31 200 -143v-3q-5 -178 -333 -178h-32q-231 0 -231 142v4q8 55 130 161v6q0 124 -122 124h-16q-3 0 -4 -32q-219 -21 -220 -65l-1 -33q121 -136 121 -161q-3 -119 -207 -146l-78 16l-78 -16q-199 0 -199 170v8q32 39 32 65
q222 82 225 210q51 388 90 388q74 453 137 453q6 227 131 227h16q141 -74 307 -825zM585 1099q-22 0 -40 -80q-66 -210 -66 -252q0 -53 146 -66q79 0 79 172q-90 226 -119 226zM666 1831q105 -28 172 -28q27 -10 49 -10q67 0 76 58q6 39 70 39q30 0 74 -9h26q17 0 17 -58
q0 -42 -9 -116q-26 -137 -318 -149q-237 1 -291 86l-216 22q-56 -96 -195 -96q-26 0 -54 3q-7 27 -7 51q0 19 4 36l26 101q18 65 279 136q251 -66 297 -66z" />
    <glyph glyph-name="Adieresis" unicode="&#xc4;" 
d="M923 696q73 -372 132 -372q200 -31 200 -143v-3q-5 -178 -333 -178h-32q-231 0 -231 142v4q8 55 130 161v6q0 124 -122 124h-16q-3 0 -4 -32q-219 -21 -220 -65l-1 -33q121 -136 121 -161q-3 -119 -207 -146l-78 16l-78 -16q-199 0 -199 170v8q32 39 32 65
q222 82 225 210q51 388 90 388q74 453 137 453q6 227 131 227h16q141 -74 307 -825zM585 1099q-22 0 -40 -80q-66 -210 -66 -252q0 -53 146 -66q79 0 79 172q-90 226 -119 226zM1118 1668q-112 -144 -216 -144h-24q-168 63 -168 144v24q0 180 228 180q138 0 180 -204z
M542 1732q-52 -196 -185 -196h-115q-104 57 -104 150q0 184 185 184h80q139 0 139 -138z" />
    <glyph glyph-name="Aring" unicode="&#xc5;" 
d="M585 1099q-22 0 -40 -80q-66 -210 -66 -252q0 -53 146 -66q79 0 79 172q-90 226 -119 226zM441 1573q-2 -7 -2 -15q0 -56 73 -167q29 -6 55 -6q75 0 115 55q38 26 47 70l2 7q3 29 3 54q0 129 -79 146l-16 4q-33 7 -60 7q-104 0 -126 -102zM774 1244q61 -150 149 -548
q73 -372 132 -372q200 -31 200 -143v-3q-5 -178 -333 -178h-32q-231 0 -231 142v4q8 55 130 161v6q0 124 -122 124h-16q-3 0 -4 -32q-219 -21 -220 -65l-1 -33q121 -136 121 -161q-3 -119 -207 -146l-78 16l-78 -16q-199 0 -199 170v8q32 39 32 65q222 82 225 210
q51 388 90 388q43 263 82 374q-179 92 -199 307q107 298 157 298h4q18 80 206 80q57 0 128 -7l11 -2q99 -21 172 -184l20 -202q-30 -83 -41 -137l-13 -59q-44 -38 -85 -65z" />
    <glyph glyph-name="AE" unicode="&#xc6;" 
d="M561 873q3 119 3 200q0 170 -14 170q-23 -98 -70 -283q-40 -155 -47 -252v-7q0 -47 54 -55q14 -3 25 -3q66 0 66 101q0 52 -17 129zM583 377q-23 60 -83 60h-12q-2 0 -5 -32q-156 -21 -160 -65l-4 -33q73 -132 73 -160v-1q-12 -119 -158 -146l-53 16l-57 -16
q-127 0 -127 141q0 14 1 29v8q26 39 28 65q163 82 176 210q67 388 94 388q65 333 106 421q6 41 36 115v46q0 23 44 61h22q39 -3 116 -3q145 0 425 10q92 -43 164 -152l-11 -77v-46q0 -88 11 -244q-26 -106 -44 -106h-43q-42 0 -99 274q-43 91 -131 91h-55q-121 0 -121 -121
v-168q0 -23 33 -46q73 0 98 183l23 15h43q82 -18 88 -60q0 -581 -99 -581q-32 0 -109 168h-55q-13 -6 -13 -46q0 -59 28 -190v-14q-2 -13 -2 -24q0 -35 20 -47q96 -30 153 -30q143 0 143 321l66 76h21q26 0 77 -320q-25 -336 -143 -336q-105 0 -230 -16l-69 31
q-57 -26 -184 -26l-45 78l37 129q-8 92 -14 170z" />
    <glyph glyph-name="Ccedilla" unicode="&#xc7;" 
d="M483 37q-375 122 -375 353q-24 0 -68 120q0 701 219 826q0 97 338 165h34q83 -15 270 -90q89 26 152 75h50q28 0 68 -105q-34 -125 -34 -270q0 -27 34 -165q-43 -117 -102 -135q-124 0 -253 360q-112 60 -152 60h-50q-338 -53 -338 -465q-17 -25 -17 -76
q68 -360 321 -360h101q142 0 220 180q73 116 168 165q59 -18 102 -135q-94 -435 -270 -435q-68 -68 -170 -92q0 -7 -1 -14q10 -20 13 -31l14 -3q23 -23 78 -37l75 -6q90 -39 90 -79v-6q28 -31 28 -77t-27 -107l-2 -1q-28 -29 -87 -75q-21 -17 -46 -37q-52 -39 -113 -39
q-28 0 -57 8q-41 -14 -91 -14q-162 0 -418 150q-18 30 -18 56q0 35 34 62l2 2l31 24q26 20 64 20q81 0 215 -88q65 -27 108 -27q30 0 49 14l10 7q62 16 62 24q0 6 -33 9h-1q-9 9 -103 35q-97 15 -128 15q-10 0 -13 -1q-48 34 -53 50l3 80q62 46 67 110z" />
    <glyph glyph-name="Egrave" unicode="&#xc8;" 
d="M979 1491q125 -43 222 -152l-14 -77v-46q0 -88 14 -244q-35 -106 -59 -106h-59q-56 0 -134 274q-57 91 -177 91h-74q-164 0 -164 -121v-168q0 -23 45 -46q99 0 133 183l30 15h59q111 -18 119 -60q0 -581 -134 -581q-43 0 -148 168h-74q-44 -15 -44 -92v-14
q0 -215 89 -215q130 -30 207 -30q193 0 193 321l89 76h29q35 0 104 -320q-34 -336 -193 -336q-143 0 -311 -16l-533 30q-104 -45 -149 -45q-29 50 -29 92v107q0 70 252 91q29 50 29 77q15 401 15 472q0 412 -104 412q-192 0 -192 138v46q0 23 59 61h30q293 0 874 15z
M527 1881q76 -74 159 -117q94 -40 94 -113q0 -28 -13 -60q-22 -42 -51 -88q-109 19 -261 65q-181 56 -222 279l6 12q78 41 137 46z" />
    <glyph glyph-name="Eacute" unicode="&#xc9;" 
d="M979 1491q125 -43 222 -152l-14 -77v-46q0 -88 14 -244q-35 -106 -59 -106h-59q-56 0 -134 274q-57 91 -177 91h-74q-164 0 -164 -121v-168q0 -23 45 -46q99 0 133 183l30 15h59q111 -18 119 -60q0 -581 -134 -581q-43 0 -148 168h-74q-44 -15 -44 -92v-14
q0 -215 89 -215q130 -30 207 -30q193 0 193 321l89 76h29q35 0 104 -320q-34 -336 -193 -336q-143 0 -311 -16l-533 30q-104 -45 -149 -45q-29 50 -29 92v107q0 70 252 91q29 50 29 77q15 401 15 472q0 412 -104 412q-192 0 -192 138v46q0 23 59 61h30q293 0 874 15z
M583 1489q-59 6 -137 49l-6 12q41 236 222 294q152 49 191 49q145 -30 167 -74q8 -16 8 -32q0 -77 -171 -164q-111 -127 -202 -134h-72z" />
    <glyph glyph-name="Ecircumflex" unicode="&#xca;" 
d="M979 1491q125 -43 222 -152l-14 -77v-46q0 -88 14 -244q-35 -106 -59 -106h-59q-56 0 -134 274q-57 91 -177 91h-74q-164 0 -164 -121v-168q0 -23 45 -46q99 0 133 183l30 15h59q111 -18 119 -60q0 -581 -134 -581q-43 0 -148 168h-74q-44 -15 -44 -92v-14
q0 -215 89 -215q130 -30 207 -30q193 0 193 321l89 76h29q35 0 104 -320q-34 -336 -193 -336q-143 0 -311 -16l-533 30q-104 -45 -149 -45q-29 50 -29 92v107q0 70 252 91q29 50 29 77q15 401 15 472q0 412 -104 412q-192 0 -192 138v46q0 23 59 61h30q293 0 874 15z
M823 1499q-95 2 -95 50q0 15 9 34q-60 93 -99 93v-5q0 -36 -68 -104q-1 -13 -32 -68h-17q-51 0 -106 -5q-16 -1 -29 -1q-42 0 -62 14q-14 9 -14 31q0 23 15 61q19 66 142 152q12 53 100 127l74 35q174 -63 271 -210q74 -112 74 -156q0 -14 -7 -21q-28 -27 -134 -27h-22z" />
    <glyph glyph-name="Edieresis" unicode="&#xcb;" 
d="M979 1491q125 -43 222 -152l-14 -77v-46q0 -88 14 -244q-35 -106 -59 -106h-59q-56 0 -134 274q-57 91 -177 91h-74q-164 0 -164 -121v-168q0 -23 45 -46q99 0 133 183l30 15h59q111 -18 119 -60q0 -581 -134 -581q-43 0 -148 168h-74q-44 -15 -44 -92v-14
q0 -215 89 -215q130 -30 207 -30q193 0 193 321l89 76h29q35 0 104 -320q-34 -336 -193 -336q-143 0 -311 -16l-533 30q-104 -45 -149 -45q-29 50 -29 92v107q0 70 252 91q29 50 29 77q15 401 15 472q0 412 -104 412q-192 0 -192 138v46q0 23 59 61h30q293 0 874 15z
M1118 1668q-112 -144 -216 -144h-24q-168 63 -168 144v24q0 180 228 180q138 0 180 -204zM542 1732q-52 -196 -185 -196h-115q-104 57 -104 150q0 184 185 184h80q139 0 139 -138z" />
    <glyph glyph-name="Igrave" unicode="&#xcc;" 
d="M137 1303q-2 29 -2 44q0 14 2 14q42 114 202 114h8l238 26q106 -16 119 -16q153 10 241 10h27q109 -1 134 -178q-40 -127 -255 -127h-13l-75 -88v-14q0 -126 -14 -264q30 -110 30 -148q-16 -233 -16 -279q21 -74 105 -75l179 -3q89 -53 89 -134q0 -108 -149 -188
q-507 37 -567 38l-148 -42h-16q-119 13 -119 105q0 176 358 259l15 29v103q0 74 -44 236l44 132q0 293 -119 340l-105 1q-70 1 -149 105zM527 1881q76 -74 159 -117q94 -40 94 -113q0 -28 -13 -60q-22 -42 -51 -88q-109 19 -261 65q-181 56 -222 279l6 12q78 41 137 46z" />
    <glyph glyph-name="Iacute" unicode="&#xcd;" 
d="M662 1490q35 -5 42 -5q153 10 241 10h27q109 -1 134 -178q-40 -127 -255 -127h-13l-75 -88v-14q0 -126 -14 -264q30 -110 30 -148q-16 -233 -16 -279q21 -74 105 -75l179 -3q89 -53 89 -134q0 -108 -149 -188q-507 37 -567 38l-148 -42h-16q-119 13 -119 105
q0 176 358 259l15 29v103q0 74 -44 236l44 132q0 293 -119 340l-105 1q-70 1 -149 105q-2 29 -2 44q0 14 2 14q42 114 202 114h8l197 21q-45 13 -98 42l-6 12q41 236 222 294q152 49 191 49q145 -30 167 -74q8 -16 8 -32q0 -77 -171 -164q-107 -122 -195 -133z" />
    <glyph glyph-name="Icircumflex" unicode="&#xce;" 
d="M137 1303q-2 29 -2 44q0 14 2 14q42 114 202 114h8l238 26q106 -16 119 -16q153 10 241 10h27q109 -1 134 -178q-40 -127 -255 -127h-13l-75 -88v-14q0 -126 -14 -264q30 -110 30 -148q-16 -233 -16 -279q21 -74 105 -75l179 -3q89 -53 89 -134q0 -108 -149 -188
q-507 37 -567 38l-148 -42h-16q-119 13 -119 105q0 176 358 259l15 29v103q0 74 -44 236l44 132q0 293 -119 340l-105 1q-70 1 -149 105zM800 1526q-95 2 -95 50q0 15 9 34q-60 93 -99 93v-5q0 -36 -68 -104q-1 -13 -32 -68h-17q-51 0 -106 -5q-16 -1 -29 -1q-42 0 -62 14
q-14 9 -14 31q0 23 15 61q19 66 142 152q12 53 100 127l74 35q174 -63 271 -210q74 -112 74 -156q0 -14 -7 -21q-28 -27 -134 -27h-22z" />
    <glyph glyph-name="Idieresis" unicode="&#xcf;" 
d="M137 1303q-2 29 -2 44q0 14 2 14q42 114 202 114h8l238 26q106 -16 119 -16q153 10 241 10h27q109 -1 134 -178q-40 -127 -255 -127h-13l-75 -88v-14q0 -126 -14 -264q30 -110 30 -148q-16 -233 -16 -279q21 -74 105 -75l179 -3q89 -53 89 -134q0 -108 -149 -188
q-507 37 -567 38l-148 -42h-16q-119 13 -119 105q0 176 358 259l15 29v103q0 74 -44 236l44 132q0 293 -119 340l-105 1q-70 1 -149 105zM1118 1668q-112 -144 -216 -144h-24q-168 63 -168 144v24q0 180 228 180q138 0 180 -204zM542 1732q-52 -196 -185 -196h-115
q-104 57 -104 150q0 184 185 184h80q139 0 139 -138z" />
    <glyph glyph-name="Eth" unicode="&#xd0;" 
d="M536 836q-20 -54 -22 -136l-1 -30v-6q0 -40 14 -40l-17 -76l-3 -106v-11q0 -155 132 -159q24 0 185 131q131 67 190 298q-73 472 -169 475v1q0 49 -210 66h-3q-103 0 -107 -149v-7q51 -6 107 -18q119 -25 119 -42v-141q-11 -35 -70 -35q-16 0 -145 -15zM292 1087
q-22 120 -65 121q-188 5 -188 120v5l2 104q1 24 61 59l265 -8q77 -2 169 -2q129 0 287 4q368 -182 368 -530v-19q-1 -45 -17 -104q13 -235 22 -255q-90 -444 -187 -444h-1q-100 -96 -519 -135l-30 1q-146 4 -146 34l-74 -13l-44 1q-125 4 -175 95l1 15q6 206 106 206h3
q80 -17 117 -18q26 0 74 28l-12 105l2 75q3 105 3 193q0 59 -1 111q-265 11 -265 54v137q0 18 35 35h35q94 18 174 25z" />
    <glyph glyph-name="Ntilde" unicode="&#xd1;" 
d="M201 1503l143 -2q201 -3 284 -340q71 -115 97 -306q70 -65 70 -152v-2h15q29 0 44 121v25q0 419 -167 421l-43 61l1 77q1 71 202 89q28 0 28 -15v-1l72 15l158 -2q112 -1 143 -78v-31q-1 -109 -189 -212l-30 -106v-107q0 -413 52 -413q-16 -153 -17 -229l-2 -229
q-1 -53 -159 -75h-14q-83 1 -295 645q-83 185 -99 185q-43 -64 -44 -122l12 -183l-15 -107v-1q0 -117 227 -216v-30q-2 -178 -410 -178h-23q-199 48 -199 154v1q1 88 174 181l15 61l-13 107l15 31l-14 61q17 281 18 351v14q0 298 -126 339q-56 30 -56 90v2q1 70 145 106z
M666 1831q105 -28 172 -28q27 -10 49 -10q67 0 76 58q6 39 70 39q30 0 74 -9h26q17 0 17 -58q0 -42 -9 -116q-26 -137 -318 -149q-237 1 -291 86l-216 22q-56 -96 -195 -96q-26 0 -54 3q-7 27 -7 51q0 19 4 36l26 101q18 65 279 136q251 -66 297 -66z" />
    <glyph glyph-name="Ograve" unicode="&#xd2;" 
d="M579 1518q375 -5 557 -474q8 0 40 -333q-44 -437 -124 -511q-145 -192 -322 -192h-5q-66 -29 -129 -29h-4q-294 67 -294 153v1q-228 179 -228 686v26q-15 0 -15 30q3 220 257 510q1 83 267 133zM350 782q59 -369 143 -370q0 -59 192 -76q178 71 179 190l1 73
q0 13 -28 119q31 157 31 206v3q0 140 -188 310l-104 1h-2q-173 0 -208 -367zM527 1881q76 -74 159 -117q94 -40 94 -113q0 -28 -13 -60q-22 -42 -51 -88q-109 19 -261 65q-181 56 -222 279l6 12q78 41 137 46z" />
    <glyph glyph-name="Oacute" unicode="&#xd3;" 
d="M350 782q59 -369 143 -370q0 -59 192 -76q178 71 179 190l1 73q0 13 -28 119q31 157 31 206v3q0 140 -188 310l-104 1h-2q-173 0 -208 -367zM706 1502q280 -72 430 -458q8 0 40 -333q-44 -437 -124 -511q-145 -192 -322 -192h-5q-66 -29 -129 -29h-4q-294 67 -294 153v1
q-228 179 -228 686v26q-15 0 -15 30q3 220 257 510q1 73 205 120q-33 12 -71 33l-6 12q41 236 222 294q152 49 191 49q145 -30 167 -74q8 -16 8 -32q0 -77 -171 -164q-81 -93 -151 -121z" />
    <glyph glyph-name="Ocircumflex" unicode="&#xd4;" 
d="M579 1518q375 -5 557 -474q8 0 40 -333q-44 -437 -124 -511q-145 -192 -322 -192h-5q-66 -29 -129 -29h-4q-294 67 -294 153v1q-228 179 -228 686v26q-15 0 -15 30q3 220 257 510q1 83 267 133zM350 782q59 -369 143 -370q0 -59 192 -76q178 71 179 190l1 73
q0 13 -28 119q31 157 31 206v3q0 140 -188 310l-104 1h-2q-173 0 -208 -367zM773 1499q-95 2 -95 50q0 15 9 34q-60 93 -99 93v-5q0 -36 -68 -104q-1 -13 -32 -68h-17q-51 0 -106 -5q-16 -1 -29 -1q-42 0 -62 14q-14 9 -14 31q0 23 15 61q19 66 142 152q12 53 100 127l74 35
q174 -63 271 -210q74 -112 74 -156q0 -14 -7 -21q-28 -27 -134 -27h-22z" />
    <glyph glyph-name="Otilde" unicode="&#xd5;" 
d="M579 1518q375 -5 557 -474q8 0 40 -333q-44 -437 -124 -511q-145 -192 -322 -192h-5q-66 -29 -129 -29h-4q-294 67 -294 153v1q-228 179 -228 686v26q-15 0 -15 30q3 220 257 510q1 83 267 133zM350 782q59 -369 143 -370q0 -59 192 -76q178 71 179 190l1 73
q0 13 -28 119q31 157 31 206v3q0 140 -188 310l-104 1h-2q-173 0 -208 -367zM666 1831q105 -28 172 -28q27 -10 49 -10q67 0 76 58q6 39 70 39q30 0 74 -9h26q17 0 17 -58q0 -42 -9 -116q-26 -137 -318 -149q-237 1 -291 86l-216 22q-56 -96 -195 -96q-26 0 -54 3
q-7 27 -7 51q0 19 4 36l26 101q18 65 279 136q251 -66 297 -66z" />
    <glyph glyph-name="Odieresis" unicode="&#xd6;" 
d="M579 1518q375 -5 557 -474q8 0 40 -333q-44 -437 -124 -511q-145 -192 -322 -192h-5q-66 -29 -129 -29h-4q-294 67 -294 153v1q-228 179 -228 686v26q-15 0 -15 30q3 220 257 510q1 83 267 133zM350 782q59 -369 143 -370q0 -59 192 -76q178 71 179 190l1 73
q0 13 -28 119q31 157 31 206v3q0 140 -188 310l-104 1h-2q-173 0 -208 -367zM1118 1668q-112 -144 -216 -144h-24q-168 63 -168 144v24q0 180 228 180q138 0 180 -204zM542 1732q-52 -196 -185 -196h-115q-104 57 -104 150q0 184 185 184h80q139 0 139 -138z" />
    <glyph glyph-name="multiply" unicode="&#xd7;" 
d="M910 1200q31 2 60 2q85 0 85 -67q0 -62 -71 -180q-176 -202 -204 -221q209 -175 260 -257q20 -34 20 -67q0 -49 -45 -98q-25 -28 -66 -28q-80 0 -218 109q-56 94 -56 125v1h-9q-107 0 -108 -119l-1 -31q-143 -78 -229 -91q-11 -2 -21 -2q-68 0 -91 81q-4 12 -4 25
q0 85 150 203h3q65 0 172 161q-249 167 -259 281q-66 14 -66 65q0 43 45 110q108 0 206.5 -80t98.5 -91q37 -105 84 -128h15q38 63 39 143q-2 0 -2 1q0 14 212 153z" />
    <glyph glyph-name="Oslash" unicode="&#xd8;" 
d="M723 1196q-20 20 -43 41l-104 1h-2q-173 0 -208 -367l-16 -89q12 -74 25 -133q16 23 34 48q57 19 135 225q34 70 165 150q0 67 14 124zM837 1045q-25 -24 -53 -63v-105q0 -144 -255 -450q-8 -24 -17 -48q41 -31 173 -43q178 71 179 190l1 73q0 13 -28 119q31 157 31 206
v3q0 57 -31 118zM164 304q-94 190 -94 515v26q-15 0 -15 30q3 220 257 510q1 83 267 133q167 -2 296 -97q39 134 194 342q0 97 135 120q60 0 105 -75v-150q0 -75 -150 -180l-133 -217q62 -92 110 -217q8 0 40 -333q-44 -437 -124 -511q-145 -192 -322 -192h-5
q-66 -29 -129 -29h-4q-167 38 -239 82q-44 -68 -94 -130q-91 -225 -241 -225q-96 39 -105 75v60q0 34 251 463z" />
    <glyph glyph-name="Ugrave" unicode="&#xd9;" 
d="M856 1505l73 1q322 -48 322 -98v-2q0 -92 -157 -273q-16 -966 -118 -969q-180 -155 -188 -155l-146 -4q-336 34 -337 144q-133 86 -133 147q28 63 28 92l-31 74l28 136q0 14 -17 120q10 194 10 334v45q0 28 -193 207q-15 25 -15 60q96 137 173 139l205 -10q80 17 116 18
q72 -23 132 -81l31 -77q-7 -89 -55 -99q-137 -67 -161 -121l1 -77q1 -59 15 -59l-13 -107l6 -376q80 -234 312 -234h26q115 64 115 137v1q-16 158 -18 256l14 61q-15 25 -15 76v4q0 31 13 56q-15 81 -16 135l-2 137q-1 74 -30 74h-1l-102 -17q-74 60 -79 218l30 67
q102 18 177 20zM527 1881q76 -74 159 -117q94 -40 94 -113q0 -28 -13 -60q-22 -42 -51 -88q-109 19 -261 65q-181 56 -222 279l6 12q78 41 137 46z" />
    <glyph glyph-name="Uacute" unicode="&#xda;" 
d="M856 1505l73 1q322 -48 322 -98v-2q0 -92 -157 -273q-16 -966 -118 -969q-180 -155 -188 -155l-146 -4q-336 34 -337 144q-133 86 -133 147q28 63 28 92l-31 74l28 136q0 14 -17 120q10 194 10 334v45q0 28 -193 207q-15 25 -15 60q96 137 173 139l205 -10q80 17 116 18
q72 -23 132 -81l31 -77q-7 -89 -55 -99q-137 -67 -161 -121l1 -77q1 -59 15 -59l-13 -107l6 -376q80 -234 312 -234h26q115 64 115 137v1q-16 158 -18 256l14 61q-15 25 -15 76v4q0 31 13 56q-15 81 -16 135l-2 137q-1 74 -30 74h-1l-102 -17q-74 60 -79 218l30 67
q102 18 177 20zM583 1509q-59 6 -137 49l-6 12q41 236 222 294q152 49 191 49q145 -30 167 -74q8 -16 8 -32q0 -77 -171 -164q-111 -127 -202 -134h-72z" />
    <glyph glyph-name="Ucircumflex" unicode="&#xdb;" 
d="M856 1505l73 1q322 -48 322 -98v-2q0 -92 -157 -273q-16 -966 -118 -969q-180 -155 -188 -155l-146 -4q-336 34 -337 144q-133 86 -133 147q28 63 28 92l-31 74l28 136q0 14 -17 120q10 194 10 334v45q0 28 -193 207q-15 25 -15 60q96 137 173 139l205 -10q80 17 116 18
q72 -23 132 -81l31 -77q-7 -89 -55 -99q-137 -67 -161 -121l1 -77q1 -59 15 -59l-13 -107l6 -376q80 -234 312 -234h26q115 64 115 137v1q-16 158 -18 256l14 61q-15 25 -15 76v4q0 31 13 56q-15 81 -16 135l-2 137q-1 74 -30 74h-1l-102 -17q-74 60 -79 218l30 67
q102 18 177 20zM790 1534q-95 2 -95 50q0 15 9 34q-60 93 -99 93v-5q0 -36 -68 -104q-1 -13 -32 -68h-17q-51 0 -106 -5q-16 -1 -29 -1q-42 0 -62 14q-14 9 -14 31q0 23 15 61q19 66 142 152q12 53 100 127l74 35q174 -63 271 -210q74 -112 74 -156q0 -14 -7 -21
q-28 -27 -134 -27h-22z" />
    <glyph glyph-name="Udieresis" unicode="&#xdc;" 
d="M856 1505l73 1q322 -48 322 -98v-2q0 -92 -157 -273q-16 -966 -118 -969q-180 -155 -188 -155l-146 -4q-336 34 -337 144q-133 86 -133 147q28 63 28 92l-31 74l28 136q0 14 -17 120q10 194 10 334v45q0 28 -193 207q-15 25 -15 60q96 137 173 139l205 -10q80 17 116 18
q72 -23 132 -81l31 -77q-7 -89 -55 -99q-137 -67 -161 -121l1 -77q1 -59 15 -59l-13 -107l6 -376q80 -234 312 -234h26q115 64 115 137v1q-16 158 -18 256l14 61q-15 25 -15 76v4q0 31 13 56q-15 81 -16 135l-2 137q-1 74 -30 74h-1l-102 -17q-74 60 -79 218l30 67
q102 18 177 20zM1158 1668q-112 -144 -216 -144h-24q-168 63 -168 144v24q0 180 228 180q138 0 180 -204zM542 1732q-52 -196 -185 -196h-115q-104 57 -104 150q0 184 185 184h80q139 0 139 -138z" />
    <glyph glyph-name="Yacute" unicode="&#xdd;" 
d="M618 1409q124 87 325 87h30q18 -1 34 -1q71 0 109 11q115 -87 115 -152v-1q-2 -139 -250 -232q-19 -73 -161 -324q-1 -58 -56 -269q-4 -27 -4 -51q0 -142 130 -142q30 0 66 7q114 -3 114 -213v-30q-81 -113 -225 -113h-10l-92 19l-506 -14q-77 38 -77 90v1
q53 221 118 221h2l130 -3h6q85 0 86 117l-12 31l14 103v1q0 90 -227 471v1q0 76 -192 171q0 24 -52 61l-23 152q88 95 257 95h17l182 -6q37 -44 69 -44q5 0 10 1h2q35 0 52 -183q-34 -118 -34 -152l24 -105l38 -89q66 119 68 235q-52 119 -71 135zM583 1509q-59 6 -137 49
l-6 12q41 236 222 294q152 49 191 49q145 -30 167 -74q8 -16 8 -32q0 -77 -171 -164q-111 -127 -202 -134h-72z" />
    <glyph glyph-name="Thorn" unicode="&#xde;" 
d="M536 749v-3q0 -231 260 -277q185 80 185 222q16 0 31 26q-69 214 -184 267q-148 0 -292 -235zM299 330l-4 2l34 387q0 4 -33 166l33 132q0 153 -90 260l-80 1q-53 1 -112 105q31 112 153 112h6l180 26q81 -16 90 -16q116 10 183 10h21q82 -1 101 -118q-30 -127 -193 -127
h-10l-57 -58v-14q0 -40 7 -47l24 -2q216 46 277 46q232 -1 368 -304q14 -195 14 -225v-63q0 -76 -77 -119q0 -180 -354 -230h-30q-132 31 -200 32q-15 -27 -15 -62v-1q0 -8 27 -8q30 0 92 10q13 1 24 1q87 0 87 -107q0 -8 -1 -17q0 -107 -107 -107l-477 1q-107 0 -107 108
l-11 71q34 58 105 58q51 0 122 -30q15 30 15 46q0 -1 -1 -1q-2 0 -4 82z" />
    <glyph glyph-name="germandbls" unicode="&#xdf;" 
d="M639 778v4q0 93 127 123q136 31 156 128v15q-61 181 -125 181h-195q-20 0 -42 -45v-91q0 -34 14 -60q-14 -27 -14 -61v-15q0 -21 4 -38l28 -399q-3 -1 -5 -1q0 -180 178 -242q74 -34 74 -151q0 -69 -148 -131l-326 25l-89 15q-117 -45 -148 -45q-36 0 -133 121v75
q40 92 281 167q0 16 15 45q-15 165 -15 287q0 61 30 181q-15 107 -15 182q25 99 25 125q0 6 -1 8q-2 2 -2 8q0 23 23 105q28 100 100 153.5t121 53.5h89q434 -30 548 -332v-16l-27 -242q-101 -113 -133 -139q58 -51 136 -76l64 -166q10 -87 10 -161q0 -276 -139 -368
q-30 -9 -66 -9q-68 0 -156 32l-15 24q-24 37 -24 74q0 88 138 176q2 20 2 38q0 155 -118 236q-231 33 -231 167q0 9 1 19q1 11 3 20z" />
    <glyph glyph-name="agrave" unicode="&#xe0;" 
d="M527 1481q76 -74 159 -117q94 -40 94 -113q0 -28 -13 -60q-22 -42 -51 -88q-109 19 -261 65q-181 56 -222 279l6 12q78 41 137 46zM512 672q269 28 269 103q0 104 -120 104q-209 -36 -209 -149l-223 -88q-89 110 -89 164v30q127 267 388 267h148q387 -1 387 -388
q29 0 29 -84v-6q-44 -163 -44 -253q177 -67 177 -163v-31q0 -163 -148 -163q-207 74 -223 74q-108 -73 -207 -73h-3l-59 15q-141 -45 -164 -45q-311 124 -311 252v2q0 33 -16 164q1 94 135 179v3zM332 329v-14q0 -21 75 -76h14q417 49 418 237q-49 30 -90 30l-104 1
q-12 0 -297 -118q-16 -27 -16 -60z" />
    <glyph glyph-name="aacute" unicode="&#xe1;" 
d="M332 329v-14q0 -21 75 -76h14q417 49 418 237q-49 30 -90 30l-104 1q-12 0 -297 -118q-16 -27 -16 -60zM554 1103q-1 2 -1 5q0 5 5 12q31 36 86 174q19 0 121 226q135 106 196 106q151 -49 151 -91v-105q-2 -24 -287 -287v-4q0 -31 -44 -45q282 -49 282 -379q29 0 29 -84
v-6q-44 -163 -44 -253q177 -67 177 -163v-31q0 -163 -148 -163q-207 74 -223 74q-108 -73 -207 -73h-3l-59 15q-141 -45 -164 -45q-311 124 -311 252v2q0 33 -16 164q1 94 135 179v3l283 86q269 28 269 103q0 104 -120 104q-209 -36 -209 -149l-223 -88q-89 110 -89 164v30
q127 267 388 267h26z" />
    <glyph glyph-name="acircumflex" unicode="&#xe2;" 
d="M800 1226q-95 2 -95 50q0 15 9 34q-60 93 -99 93v-5q0 -36 -68 -104q-1 -13 -32 -68h-17q-51 0 -106 -5q-16 -1 -29 -1q-42 0 -62 14q-14 9 -14 31q0 23 15 61q19 66 142 152q12 53 100 127l74 35q174 -63 271 -210q74 -112 74 -156q0 -14 -7 -21q-28 -27 -134 -27h-22z
M512 672q269 28 269 103q0 104 -120 104q-209 -36 -209 -149l-223 -88q-89 110 -89 164v30q127 267 388 267h148q387 -1 387 -388q29 0 29 -84v-6q-44 -163 -44 -253q177 -67 177 -163v-31q0 -163 -148 -163q-207 74 -223 74q-108 -73 -207 -73h-3l-59 15q-141 -45 -164 -45
q-311 124 -311 252v2q0 33 -16 164q1 94 135 179v3zM332 329v-14q0 -21 75 -76h14q417 49 418 237q-49 30 -90 30l-104 1q-12 0 -297 -118q-16 -27 -16 -60z" />
    <glyph glyph-name="atilde" unicode="&#xe3;" 
d="M666 1531q105 -28 147 -45q8 -3 14 -3q29 0 36 56q6 50 77 50q28 0 67 -8h26q17 0 17 -58q0 -42 -9 -116q-26 -137 -218 -149q-237 1 -291 86l-116 22q-56 -96 -195 -96q-26 0 -54 3q-7 27 -7 51q0 19 4 36l26 101q18 65 279 136q151 -66 197 -66zM512 672
q269 28 269 103q0 104 -120 104q-209 -36 -209 -149l-223 -88q-89 110 -89 164v30q127 267 388 267h148q387 -1 387 -388q29 0 29 -84v-6q-44 -163 -44 -253q177 -67 177 -163v-31q0 -163 -148 -163q-207 74 -223 74q-108 -73 -207 -73h-3l-59 15q-141 -45 -164 -45
q-311 124 -311 252v2q0 33 -16 164q1 94 135 179v3zM332 329v-14q0 -21 75 -76h14q417 49 418 237q-49 30 -90 30l-104 1q-12 0 -297 -118q-16 -27 -16 -60z" />
    <glyph glyph-name="adieresis" unicode="&#xe4;" 
d="M1073 1332q-100 -128 -192 -128h-22q-149 56 -149 128v21q0 161 203 161q123 0 160 -182zM542 1386q-48 -180 -170 -180h-105q-96 52 -96 138q0 169 170 169h73q128 0 128 -127zM512 672q269 28 269 103q0 104 -120 104q-209 -36 -209 -149l-223 -88q-89 110 -89 164v30
q127 267 388 267h148q387 -1 387 -388q29 0 29 -84v-6q-44 -163 -44 -253q177 -67 177 -163v-31q0 -163 -148 -163q-207 74 -223 74q-108 -73 -207 -73h-3l-59 15q-141 -45 -164 -45q-311 124 -311 252v2q0 33 -16 164q1 94 135 179v3zM332 329v-14q0 -21 75 -76h14
q417 49 418 237q-49 30 -90 30l-104 1q-12 0 -297 -118q-16 -27 -16 -60z" />
    <glyph glyph-name="aring" unicode="&#xe5;" 
d="M483 1380q-1 -6 -1 -14q0 -49 62 -144q26 -6 48 -6q65 0 100 48q33 23 41 61l2 6q2 25 2 46q0 114 -68 128l-14 4q-28 6 -52 6q-91 0 -110 -89zM332 329v-14q0 -21 75 -76h14q417 49 418 237q-49 30 -90 30l-104 1q-12 0 -297 -118q-16 -27 -16 -60zM422 1091
q-121 81 -136 245q94 259 137 259h3q15 69 179 69q49 0 111 -6l10 -1q86 -19 150 -160l17 -176q-26 -72 -36 -119l-11 -52q-36 -31 -71 -55q288 -46 288 -380q29 0 29 -84v-6q-44 -163 -44 -253q177 -67 177 -163v-31q0 -163 -148 -163q-207 74 -223 74q-108 -73 -207 -73
h-3l-59 15q-141 -45 -164 -45q-311 124 -311 252v2q0 33 -16 164q1 94 135 179v3l283 86q269 28 269 103q0 104 -120 104q-209 -36 -209 -149l-223 -88q-89 110 -89 164v30q100 210 282 255z" />
    <glyph glyph-name="ae" unicode="&#xe6;" 
d="M208 315q0 -21 61 -76h11q249 48 249 233v4q-39 30 -72 30l-83 1q-10 0 -155 -118q-11 -25 -11 -55v-19zM761 714q41 -31 74 -31q26 0 54 15l74 -15q59 25 59 90v2q-2 82 -130 108q-109 -76 -131 -169zM771 22q-19 -7 -43 -7q-166 74 -179 74q-85 -73 -164 -73h-2l-47 15
q-32 -45 -51 -45q-250 124 -253 252v2q0 33 -16 164v2q0 93 104 177v3l145 86q212 28 212 102v1q-2 104 -98 104q-78 -33 -78 -118q0 -9 1 -19l-192 -84q-64 94 -65 148l-1 30q96 267 225 267h118q163 -1 242 -108q101 110 281 126q277 -49 281 -248q28 -118 30 -220v-2
q0 -95 -88 -155q-31 0 -113 63q-103 -93 -266 -93h-37q-9 -1 -14 -5q-4 -35 -5 -63q8 -20 23 -37q48 -26 77 -55q55 -27 60 -45h38q47 0 183 124q13 17 56 17h13q38 -1 54 -141v-6q0 -209 -284 -276h-13q-80 19 -134 43z" />
    <glyph glyph-name="ccedilla" unicode="&#xe7;" 
d="M479 12q-230 62 -374 405q1 548 344 641q95 43 233 43h36q402 -90 402 -372v-1q-30 -90 -151 -179h-28q-152 0 -179 269q-101 89 -119 89q-283 -142 -283 -326v-45q14 -282 266 -284q239 0 239 164q64 59 120 59h14q105 -58 105 -74v-90q-1 -223 -373 -299q0 -6 -1 -13
q10 -20 13 -31l14 -3q23 -23 78 -37l75 -6q90 -39 90 -79v-6q28 -31 28 -77t-27 -107l-2 -1q-28 -29 -87 -75q-21 -17 -46 -37q-52 -39 -113 -39q-28 0 -57 8q-41 -14 -91 -14q-162 0 -418 150q-18 30 -18 56q0 35 34 62l2 2l31 24q26 20 64 20q81 0 215 -88q65 -27 108 -27
q30 0 49 14l10 7q62 16 62 24q0 6 -33 9h-1q-9 9 -103 35q-97 15 -128 15q-10 0 -13 -1q-48 34 -53 50l3 80q50 37 63 85z" />
    <glyph glyph-name="egrave" unicode="&#xe8;" 
d="M527 1581q76 -74 159 -117q94 -40 94 -113q0 -28 -13 -60q-22 -42 -51 -88q-109 19 -261 65q-181 56 -222 279l6 12q78 41 137 46zM652 1141q467 -69 467 -268q32 -118 32 -220q-1 -96 -115 -157q-38 0 -160 63q-131 -93 -435 -93h-47q-33 -4 -33 -31q0 -121 305 -174h48
q58 0 242 124q27 17 80 17h17q48 -1 64 -141q0 -214 -483 -282h-16q-307 59 -307 158q-63 58 -191 298v126q1 495 532 580zM456 714q50 -31 92 -31q32 0 168 15l92 -15q76 25 76 92q0 82 -260 108q-139 -76 -168 -169z" />
    <glyph glyph-name="eacute" unicode="&#xe9;" 
d="M456 714q50 -31 92 -31q32 0 168 15l92 -15q76 25 76 92q0 82 -260 108q-139 -76 -168 -169zM560 1122q31 38 84 172q19 0 121 226q135 106 196 106q151 -49 151 -91v-105q-2 -24 -287 -287v-4q0 -17 -13 -29q307 -76 307 -237q32 -118 32 -220q-1 -96 -115 -157
q-38 0 -160 63q-131 -93 -435 -93h-47q-33 -4 -33 -31q0 -121 305 -174h48q58 0 242 124q27 17 80 17h17q48 -1 64 -141q0 -214 -483 -282h-16q-307 59 -307 158q-63 58 -191 298v126q1 450 440 561z" />
    <glyph glyph-name="ecircumflex" unicode="&#xea;" 
d="M800 1226q-95 2 -95 50q0 15 9 34q-60 93 -99 93v-5q0 -36 -68 -104q-1 -13 -32 -68h-17q-51 0 -106 -5q-16 -1 -29 -1q-42 0 -62 14q-14 9 -14 31q0 23 15 61q19 66 142 152q12 53 100 127l74 35q174 -63 271 -210q74 -112 74 -156q0 -14 -7 -21q-28 -27 -134 -27h-22z
M652 1141q467 -69 467 -268q32 -118 32 -220q-1 -96 -115 -157q-38 0 -160 63q-131 -93 -435 -93h-47q-33 -4 -33 -31q0 -121 305 -174h48q58 0 242 124q27 17 80 17h17q48 -1 64 -141q0 -214 -483 -282h-16q-307 59 -307 158q-63 58 -191 298v126q1 495 532 580zM456 714
q50 -31 92 -31q32 0 168 15l92 -15q76 25 76 92q0 82 -260 108q-139 -76 -168 -169z" />
    <glyph glyph-name="edieresis" unicode="&#xeb;" 
d="M1073 1332q-100 -128 -192 -128h-22q-149 56 -149 128v21q0 161 203 161q123 0 160 -182zM542 1386q-48 -180 -170 -180h-105q-96 52 -96 138q0 169 170 169h73q128 0 128 -127zM652 1141q467 -69 467 -268q32 -118 32 -220q-1 -96 -115 -157q-38 0 -160 63
q-131 -93 -435 -93h-47q-33 -4 -33 -31q0 -121 305 -174h48q58 0 242 124q27 17 80 17h17q48 -1 64 -141q0 -214 -483 -282h-16q-307 59 -307 158q-63 58 -191 298v126q1 495 532 580zM456 714q50 -31 92 -31q32 0 168 15l92 -15q76 25 76 92q0 82 -260 108
q-139 -76 -168 -169z" />
    <glyph glyph-name="igrave" unicode="&#xec;" 
d="M527 1581q76 -74 159 -117q94 -40 94 -113q0 -28 -13 -60q-22 -42 -51 -88q-109 19 -261 65q-181 56 -222 279l6 12q78 41 137 46zM599 1121q184 0 233 -138l-15 -109v-94q63 -154 63 -169q-79 -170 -79 -187q11 -155 110 -155l145 30q110 -30 110 -124
q-44 -171 -220 -171q-47 0 -47 16l-268 -31q-153 31 -299 31q-17 0 -48 -16q-174 53 -174 171q0 94 158 94l189 -15q71 0 111 123q-16 194 -16 216q16 197 16 234q-66 62 -158 62h-16l-158 -15q-77 62 -77 77v63q0 48 158 92l108 -15q9 0 174 30z" />
    <glyph glyph-name="iacute" unicode="&#xed;" 
d="M535 1176q-4 7 -4 18q0 36 33 118q19 0 121 221q132 99 194 99h2q151 -55 151 -97v-105q-2 -24 -144.5 -150t-142.5 -127t-98 -2q-5 -1 -10 -1q-89 0 -102 26zM599 1121q184 0 233 -138l-15 -109v-94q63 -154 63 -169q-79 -170 -79 -187q11 -155 110 -155l145 30
q110 -30 110 -124q-44 -171 -220 -171q-47 0 -47 16l-268 -31q-153 31 -299 31q-17 0 -48 -16q-174 53 -174 171q0 94 158 94l189 -15q71 0 111 123q-16 194 -16 216q16 197 16 234q-66 62 -158 62h-16l-158 -15q-77 62 -77 77v63q0 48 158 92l108 -15q9 0 174 30z" />
    <glyph glyph-name="icircumflex" unicode="&#xee;" 
d="M800 1226q-95 2 -95 50q0 15 9 34q-60 93 -99 93v-5q0 -36 -68 -104q-1 -13 -32 -68h-17q-51 0 -106 -5q-16 -1 -29 -1q-42 0 -62 14q-14 9 -14 31q0 23 15 61q19 66 142 152q12 53 100 127l74 35q174 -63 271 -210q74 -112 74 -156q0 -14 -7 -21q-28 -27 -134 -27h-22z
M599 1121q184 0 233 -138l-15 -109v-94q63 -154 63 -169q-79 -170 -79 -187q11 -155 110 -155l145 30q110 -30 110 -124q-44 -171 -220 -171q-47 0 -47 16l-268 -31q-153 31 -299 31q-17 0 -48 -16q-174 53 -174 171q0 94 158 94l189 -15q71 0 111 123q-16 194 -16 216
q16 197 16 234q-66 62 -158 62h-16l-158 -15q-77 62 -77 77v63q0 48 158 92l108 -15q9 0 174 30z" />
    <glyph glyph-name="idieresis" unicode="&#xef;" 
d="M1073 1332q-100 -128 -192 -128h-22q-149 56 -149 128v21q0 161 203 161q123 0 160 -182zM542 1386q-48 -180 -170 -180h-105q-96 52 -96 138q0 169 170 169h73q128 0 128 -127zM599 1121q184 0 233 -138l-15 -109v-94q63 -154 63 -169q-79 -170 -79 -187
q11 -155 110 -155l145 30q110 -30 110 -124q-44 -171 -220 -171q-47 0 -47 16l-268 -31q-153 31 -299 31q-17 0 -48 -16q-174 53 -174 171q0 94 158 94l189 -15q71 0 111 123q-16 194 -16 216q16 197 16 234q-66 62 -158 62h-16l-158 -15q-77 62 -77 77v63q0 48 158 92
l108 -15q9 0 174 30z" />
    <glyph glyph-name="eth" unicode="&#xf0;" 
d="M383 546q0 -105 199 -301q219 0 287 156q57 60 57 143v15q-37 329 -214 329h-33q-296 0 -296 -242v-100zM846 1533q141 -100 181 -204q109 -69 113 -198q1 -44 1 -82q0 -104 -8 -159v-4l18 -284q-17 -135 -17 -220v-94q-205 -273 -416 -313q-490 1 -623 424
q66 503 145 503q0 163 480 219h17q65 0 132 -39q2 19 2 39v16q-2 76 -167 210q-47 9 -89 19l-38 -28q-169 -119 -209 -119q-11 0 -12 8l-80 111v4q0 14 16 38l20 15q38 23 71 43q-139 61 -141 138l-1 54v5q0 102 117 132q187 -67 324 -136q43 37 46 38q117 71 135 71
q3 0 3 -2l105 -115q-1 -32 -36 -58q-7 -5 -89 -32z" />
    <glyph glyph-name="ntilde" unicode="&#xf1;" 
d="M666 1531q105 -28 147 -45q8 -3 14 -3q29 0 36 56q6 50 77 50q28 0 67 -8h26q17 0 17 -58q0 -42 -9 -116q-26 -137 -218 -149q-237 1 -291 86l-116 22q-56 -96 -195 -96q-26 0 -54 3q-7 27 -7 51q0 19 4 36l26 101q18 65 279 136q151 -66 197 -66zM173 1088h119l149 -135
l285 134h45q252 -1 283 -315q15 -24 15 -75q-16 -202 -16 -298q0 -94 164 -180q0 -23 30 -60v-45q-16 -119 -105 -119q-195 16 -314 16h-90q-34 0 -74 134q48 65 194 179q16 81 16 135v256q0 147 -134 147l-60 1q-239 -203 -240 -478q0 -89 135 -180l28 -104
q0 -105 -268 -105l-150 1q-178 0 -178 134v1q0 84 179 179q16 195 16 314v179q-89 112 -89 179q20 105 60 105z" />
    <glyph glyph-name="ograve" unicode="&#xf2;" 
d="M353 546q0 -105 199 -301q219 0 287 156q57 60 57 143v15q-37 329 -214 329h-33q-296 0 -296 -242v-100zM1006 902q79 0 145 -503q-133 -423 -623 -424q-211 40 -416 313v94q0 85 -17 220l95 298q164 221 319 221h1q17 12 21 22v31q-329 215 -329 345v31q0 79 47 95h62
l80 -16q281 -253 281 -455q0 -37 71 -78q47 -12 89 -29q174 -56 174 -165z" />
    <glyph glyph-name="oacute" unicode="&#xf3;" 
d="M383 546q0 -105 199 -301q219 0 287 156q57 60 57 143v15q-37 329 -214 329h-33q-296 0 -296 -242v-100zM563 -13q-357 60 -468 412q14 110 29 196q0 7 -1 14q71 413 258 438q40 16 90 30q108 51 108 97q0 202 281 455l80 16h62q47 -16 47 -95v-31q0 -130 -329 -345v-31
q4 -10 21 -22q84 -2 171 -68l12 -4q68 -48 107 -116q12 -16 25 -33l95 -298q-17 -135 -17 -220v-94q-205 -273 -416 -313q-64 0 -122 8q-9 -1 -17 -1q-8 3 -16 5z" />
    <glyph glyph-name="ocircumflex" unicode="&#xf4;" 
d="M820 1166q-95 2 -95 50q0 15 9 34q-60 93 -99 93v-5q0 -36 -68 -104q-1 -13 -32 -68h-17q-51 0 -106 -5q-16 -1 -29 -1q-42 0 -62 14q-14 9 -14 31q0 23 15 61q19 66 142 152q12 53 100 127l74 35q174 -63 271 -210q74 -112 74 -156q0 -14 -7 -21q-28 -27 -134 -27h-22z
M737 1121q155 0 319 -221l95 -298q-17 -135 -17 -220v-94q-205 -273 -416 -313q-490 1 -623 424q66 503 145 503q0 163 480 219h17zM383 546q0 -105 199 -301q219 0 287 156q57 60 57 143v15q-37 329 -214 329h-33q-296 0 -296 -242v-100z" />
    <glyph glyph-name="otilde" unicode="&#xf5;" 
d="M666 1441q105 -28 147 -45q8 -3 14 -3q29 0 36 56q6 50 77 50q28 0 67 -8h26q17 0 17 -58q0 -42 -9 -116q-26 -137 -218 -149q-237 1 -291 86l-116 22q-56 -96 -195 -96q-26 0 -54 3q-7 27 -7 51q0 19 4 36l26 101q18 65 279 136q151 -66 197 -66zM737 1121
q155 0 319 -221l95 -298q-17 -135 -17 -220v-94q-205 -273 -416 -313q-490 1 -623 424q66 503 145 503q0 163 480 219h17zM383 546q0 -105 199 -301q219 0 287 156q57 60 57 143v15q-37 329 -214 329h-33q-296 0 -296 -242v-100z" />
    <glyph glyph-name="odieresis" unicode="&#xf6;" 
d="M1073 1332q-100 -128 -192 -128h-22q-149 56 -149 128v21q0 161 203 161q123 0 160 -182zM542 1386q-48 -180 -170 -180h-105q-96 52 -96 138q0 169 170 169h73q128 0 128 -127zM737 1121q155 0 319 -221l95 -298q-17 -135 -17 -220v-94q-205 -273 -416 -313
q-490 1 -623 424q66 503 145 503q0 163 480 219h17zM383 546q0 -105 199 -301q219 0 287 156q57 60 57 143v15q-37 329 -214 329h-33q-296 0 -296 -242v-100z" />
    <glyph glyph-name="divide" unicode="&#xf7;" 
d="M734 871q425 0 425 -132v-60q0 -175 -279 -175l-176 30l-190 -30q-438 0 -438 117q-15 0 -15 15q0 92 160 219q380 16 513 16zM653 1384q159 -124 159 -238v-27q-69 -185 -159 -185h-26q-199 0 -199 252q0 152 225 198zM574 449q225 -58 225 -205v-127
q-66 -114 -172 -114q-212 0 -212 204v88q0 154 159 154z" />
    <glyph glyph-name="oslash" unicode="&#xf8;" 
d="M725 888h-46q-296 0 -296 -242v-100q0 -39 28 -92q56 90 168 243q31 10 146 191zM905 682q-90 -116 -206 -255q-33 -94 -73 -180q182 14 243 154q57 60 57 143v15q-8 68 -21 123zM241 145q-97 98 -146 254q66 503 145 503q0 163 480 219h17q56 0 113 -29q55 93 121 208
q0 97 135 120q60 0 105 -75v-150q0 -75 -128 -268l-24 -36l92 -289q-17 -135 -17 -220v-94q-205 -273 -416 -313q-129 0 -233 30q-27 -38 -56 -74q-91 -225 -241 -225q-96 39 -105 75v60q0 27 158 304z" />
    <glyph glyph-name="ugrave" unicode="&#xf9;" 
d="M527 1581q76 -74 159 -117q94 -40 94 -113q0 -28 -13 -60q-22 -42 -51 -88q-109 19 -261 65q-181 56 -222 279l6 12q78 41 137 46zM145 1103q246 0 246 -217q0 -40 30 -122q-30 -107 -30 -185v-124q0 -148 139 -169h30q156 0 200 154q94 154 94 324q0 107 -248 122
q0 10 -61 78v77q0 34 124 62q385 0 385 -139l15 -30q0 -17 -15 -48l15 -107q0 -41 -31 -354q0 -185 153 -185q124 0 124 -108v-16q-96 -154 -215 -154q-262 78 -262 185h-62q-160 -153 -231 -153h-170q-215 151 -215 322q0 126 15 294q0 293 -169 293l-31 46v76q0 55 170 78
z" />
    <glyph glyph-name="uacute" unicode="&#xfa;" 
d="M549 1118q-126 0 -126 25q0 5 5 12q31 36 52 124q19 0 121 226q135 106 196 106q151 -49 151 -91v-105q-2 -24 -253 -237v-4q0 -56 -146 -56zM145 1103q246 0 246 -217q0 -40 30 -122q-30 -107 -30 -185v-124q0 -148 139 -169h30q156 0 200 154q94 154 94 324
q0 107 -248 122q0 10 -61 78v77q0 34 124 62q385 0 385 -139l15 -30q0 -17 -15 -48l15 -107q0 -41 -31 -354q0 -185 153 -185q124 0 124 -108v-16q-96 -154 -215 -154q-262 78 -262 185h-62q-160 -153 -231 -153h-170q-215 151 -215 322q0 126 15 294q0 293 -169 293l-31 46
v76q0 55 170 78z" />
    <glyph glyph-name="ucircumflex" unicode="&#xfb;" 
d="M800 1226q-95 2 -95 50q0 15 9 34q-60 93 -99 93v-5q0 -36 -68 -104q-1 -13 -32 -68h-17q-51 0 -106 -5q-16 -1 -29 -1q-42 0 -62 14q-14 9 -14 31q0 23 15 61q19 66 142 152q12 53 100 127l74 35q174 -63 271 -210q74 -112 74 -156q0 -14 -7 -21q-28 -27 -134 -27h-22z
M145 1103q246 0 246 -217q0 -40 30 -122q-30 -107 -30 -185v-124q0 -148 139 -169h30q156 0 200 154q94 154 94 324q0 107 -248 122q0 10 -61 78v77q0 34 124 62q385 0 385 -139l15 -30q0 -17 -15 -48l15 -107q0 -41 -31 -354q0 -185 153 -185q124 0 124 -108v-16
q-96 -154 -215 -154q-262 78 -262 185h-62q-160 -153 -231 -153h-170q-215 151 -215 322q0 126 15 294q0 293 -169 293l-31 46v76q0 55 170 78z" />
    <glyph glyph-name="udieresis" unicode="&#xfc;" 
d="M1073 1332q-100 -128 -192 -128h-22q-149 56 -149 128v21q0 161 203 161q123 0 160 -182zM542 1386q-48 -180 -170 -180h-105q-96 52 -96 138q0 169 170 169h73q128 0 128 -127zM145 1103q246 0 246 -217q0 -40 30 -122q-30 -107 -30 -185v-124q0 -148 139 -169h30
q156 0 200 154q94 154 94 324q0 107 -248 122q0 10 -61 78v77q0 34 124 62q385 0 385 -139l15 -30q0 -17 -15 -48l15 -107q0 -41 -31 -354q0 -185 153 -185q124 0 124 -108v-16q-96 -154 -215 -154q-262 78 -262 185h-62q-160 -153 -231 -153h-170q-215 151 -215 322
q0 126 15 294q0 293 -169 293l-31 46v76q0 55 170 78z" />
    <glyph glyph-name="yacute" unicode="&#xfd;" 
d="M729 1093q-126 0 -126 25q0 5 5 12q31 36 86 174q19 0 121 226q135 106 196 106q151 -49 151 -91v-105q-2 -24 -287 -287v-4q0 -56 -146 -56zM578 1091q103 0 103 -103v-133q-49 -74 -59 -74q36 -207 147 -207q41 0 59 148v30q0 25 -73 147q20 177 103 177l236 15
q89 -26 89 -133q-177 -649 -325 -812q0 -190 -192 -487q-72 -44 -192 -44h-133q-221 46 -221 207v177q61 118 148 118h147q74 -35 74 -74q-30 -48 -30 -89v-44q5 -29 30 -29h15q74 38 74 118v221l-163 163v29q0 33 15 59q-74 369 -251 369q0 8 -59 74v44q0 118 458 133z" />
    <glyph glyph-name="thorn" unicode="&#xfe;" 
d="M526 499v-3q0 -271 260 -287q185 50 185 212q16 0 31 46q-69 194 -184 247q-148 0 -292 -215zM511 891q15 0 31 -2q216 46 277 46q232 -1 368 -314q14 -195 14 -215v-13q0 -106 -77 -169q0 -180 -354 -230h-30q-132 31 -200 32q-15 -27 -15 -62v-1q0 -146 229 -214v-47
q0 -107 -107 -107l-477 1q-107 0 -107 108v31q0 18 216 108q15 90 15 106q-14 406 -14 582l31 107v15q0 26 11 70l-3 -2q-3 147 -90 253l-80 4q-53 2 -112 108q30 107 145 107h14l180 21q81 -19 90 -19q87 5 146 5q20 0 37 -1l21 -1q82 -3 101 -121q-29 -121 -181 -121h-22
l-57 -56v-9z" />
    <glyph glyph-name="ydieresis" unicode="&#xff;" 
d="M1146 1324q-100 -128 -192 -128h-22q-149 56 -149 128v21q0 161 203 161q123 0 160 -182zM615 1378q-48 -180 -170 -180h-105q-96 52 -96 138q0 169 170 169h73q128 0 128 -127zM578 1091q103 0 103 -103v-133q-49 -74 -59 -74q36 -207 147 -207q41 0 59 148v30
q0 25 -73 147q20 177 103 177l236 15q89 -26 89 -133q-177 -649 -325 -812q0 -190 -192 -487q-72 -44 -192 -44h-133q-221 46 -221 207v177q61 118 148 118h147q74 -35 74 -74q-30 -48 -30 -89v-44q5 -29 30 -29h15q74 38 74 118v221l-163 163v29q0 33 15 59
q-74 369 -251 369q0 8 -59 74v44q0 118 458 133z" />
    <glyph glyph-name="iogonek" unicode="&#x12f;" 
d="M722 0q16 -41 59 -73l3 -80q-5 -16 -53 -50q-3 1 -13 1q-31 0 -128 -15q-94 -26 -103 -35h-1q-33 -3 -33 -9q0 -8 62 -24l10 -7q19 -14 49 -14q43 0 108 27q134 88 215 88q38 0 64 -20l31 -24l2 -2q34 -27 34 -62q0 -26 -18 -56q-256 -150 -418 -150q-50 0 -91 14
q-29 -8 -57 -8q-61 0 -113 39q-25 20 -46 37q-59 46 -87 75l-2 1q-27 61 -27 107t28 77v6q0 40 90 79l75 6q55 14 78 37l14 3q3 11 13 31q-1 7 -2 15q-67 6 -133 6q-17 0 -48 -16q-174 53 -174 171q0 94 158 94l189 -15q71 0 111 123q-16 194 -16 216q16 197 16 234
q-66 62 -158 62h-16l-158 -15q-77 62 -77 77v63q0 48 158 92l108 -15q9 0 174 30q184 0 233 -138l-15 -109v-94q63 -154 63 -169q-79 -170 -79 -187q11 -155 110 -155l145 30q110 -30 110 -124q-44 -171 -220 -171q-47 0 -47 16zM733 1536q67 -71 67 -133v-18
q0 -201 -168 -201q-150 48 -150 119q0 233 251 233z" />
    <glyph glyph-name="OE" unicode="&#x152;" 
d="M543 1477q199 4 498 14q96 -43 171 -152l-11 -77v-46q0 -88 11 -244q-27 -106 -45 -106h-52q-97 0 -97 250v24q-44 91 -136 91h-57q-126 0 -126 -121v-168q0 -23 35 -46q2 -1 4 -1q32 0 56 172l23 15h46q127 -6 133 -48q0 -581 -103 -581q-115 0 -115 144q0 11 1 24h-57
q-34 -15 -34 -92v-14q0 -215 69 -215q100 -30 159 -30q110 0 110 195q0 68 -14 161l121 41h22q27 0 80 -320q-26 -336 -148 -336q-110 0 -240 -16l-286 21q-46 -16 -101 -16q-389 122 -389 390q-18 0 -52 120q0 701 168 826q0 97 224 146h26q24 -5 85 -5h21zM502 1215l-3 16
h-39q-207 -64 -214 -492q-13 -25 -13 -76q7 -333 201 -333l61 -8l2 278q4 167 4 211q0 60 -1 112z" />
    <glyph glyph-name="oe" unicode="&#x153;" 
d="M717 714q33 -31 60 -31q21 0 111 15l61 -15q50 25 50 92q0 82 -172 108q-91 -76 -110 -169zM500 773q-1 14 -2 29q-67 86 -79 86q-188 -138 -188 -317v-43q9 -274 177 -276q81 0 120 42q-23 58 -51 136v122q0 124 23 221zM625 90v-10q-79 -54 -208 -81h-54
q-220 1 -348 418q1 548 251 641q70 43 170 43h27q92 -28 156 -76v-10q92 93 241 126q341 -69 341 -268q23 -118 23 -220q-1 -96 -84 -157q-28 0 -117 63q-95 -93 -275 -93h-35q-24 -4 -24 -31q28 -152 181 -174h35q42 0 177 124q19 17 58 17h12q35 -1 47 -141
q0 -214 -352 -282h-12q-169 44 -210 111z" />
    <glyph glyph-name="Racute" unicode="&#x154;" 
d="M583 1497q-59 6 -137 48l-6 12q41 231 222 288q152 48 191 48q145 -29 167 -73q8 -16 8 -32q0 -75 -171 -160q-111 -124 -202 -131h-72zM698 170v-22q0 -113 -85 -134q-79 -20 -143 -20q-11 0 -22 1q-71 4 -119 4q-69 0 -89 -8q-157 8 -265 235q3 53 216 165l31 132
q-21 50 -21 134q0 14 1 29q2 29 43 101q-18 141 -18 187v5q1 13 18 117v10q0 138 -163 146q-34 72 -34 115v5q50 122 215 122q12 0 24 -1q69 3 136 3q90 0 177 -5q413 -21 413 -108v-2q107 -87 107 -263v-22q-9 -201 -162 -434q44 -94 64 -289q8 1 16 1q134 0 203 -180
l-4 -48q-156 -137 -212 -137h-2q-54 -7 -98 -7q-142 0 -176 74l-59 408v6q0 76 -73 115q-92 -25 -96 -112l-2 -31q-8 -33 -8 -61q0 -93 88 -132q18 7 33 7q59 0 66 -106zM491 1206l9 -117q-1 -39 -29 -103q6 -78 49 -79q19 -1 36 -1q287 0 294 184l1 25v4q0 87 -139 105
q-20 1 -39 1q-103 0 -182 -19z" />
    <glyph glyph-name="racute" unicode="&#x155;" 
d="M626 1099q-40 7 -80 61v15q113 294 262 367q125 61 153 61q92 -37 92 -92q-1 -114 -185 -245q-124 -158 -191 -167h-51zM978 1098q200 -57 200 -170q-59 -307 -109 -307h-46q-123 69 -123 231q-29 15 -46 15q-261 -101 -262 -429q15 -215 215 -216q77 -63 77 -78v-61
q0 -21 -77 -77l-231 1q-62 0 -201 -31q-307 17 -307 93v77q0 36 247 77q61 67 62 431v30q0 184 -230 185l-46 46v76q0 78 226 78h97q74 0 185 -109h15q81 123 308 123q0 15 46 15z" />
    <glyph glyph-name="Scaron" unicode="&#x160;" 
d="M837 1917h26q128 0 162 -27q9 -7 9 -21q0 -44 -89 -156q-118 -147 -328 -210l-90 35q-106 74 -121 127q-149 86 -172 152q-18 38 -18 61q0 22 17 32q25 13 75 13q17 0 36 -1q66 -5 128 -5h20q37 -55 39 -68q83 -69 83 -104q0 -2 -1 -5q47 0 120 93q-11 19 -11 34
q0 48 115 50zM954 1501h31q84 0 124 -75q0 -32 -47 -196l16 -181q-26 -68 -93 -105h-93q-38 0 -93 166q-34 0 -93 90q-132 60 -171 60h-62q-154 -81 -154 -105v-75q0 -106 480 -181h108q169 0 279 -407q0 -244 -279 -467q-76 0 -294 -30l-294 45q-20 0 -155 -15
q-97 31 -109 76q16 277 16 466v61q0 21 46 45h16q139 0 232 -301q143 -91 248 -91h77q163 0 202 211q-92 181 -233 181q0 24 -325 75q-170 69 -248 271q0 68 -15 91q44 221 232 346l109 30h216q96 0 171 -75h62z" />
    <glyph glyph-name="scaron" unicode="&#x161;" 
d="M819 1533h22q106 0 134 -27q7 -7 7 -21q0 -44 -74 -156q-97 -147 -271 -210l-74 35q-88 74 -100 127q-123 86 -142 152q-15 38 -15 61q0 22 14 32q20 13 62 13q13 0 29 -1q55 -5 106 -5h17q31 -55 32 -68q68 -68 68 -104v-5q39 0 99 93q-9 19 -9 34q0 48 95 50zM827 751
v1q0 65 -370 78l-31 -46v-94q5 -31 31 -31h15q78 0 78 31l185 -31l304 -89q97 -117 97 -237q0 -228 -325 -339h-16l-154 16q-11 0 -93 -15q-83 31 -170 31q-99 -31 -108 -31q-108 38 -108 62v17q0 138 -31 262q1 96 78 139q54 -1 340 -248h231q90 0 139 106q0 156 -416 156
q-4 31 -108 47h-109q-154 127 -154 139v63q0 143 249 339l257 -14q33 0 176 13l92 15q200 0 200 -367v-4q0 -15 -37 -57l-197 11z" />
    <glyph glyph-name="Ydieresis" unicode="&#x178;" 
d="M1158 1668q-112 -144 -216 -144h-24q-168 63 -168 144v24q0 180 228 180q138 0 180 -204zM542 1732q-52 -196 -185 -196h-115q-104 57 -104 150q0 184 185 184h80q139 0 139 -138zM618 1409q124 87 325 87h30q18 -1 34 -1q71 0 109 11q115 -87 115 -152v-1
q-2 -139 -250 -232q-19 -73 -161 -324q-1 -58 -56 -269q-4 -27 -4 -51q0 -142 130 -142q30 0 66 7q114 -3 114 -213v-30q-81 -113 -225 -113h-10l-92 19l-506 -14q-77 38 -77 90v1q53 221 118 221h2l130 -3h6q85 0 86 117l-12 31l14 103v1q0 90 -227 471v1q0 76 -192 171
q0 24 -52 61l-23 152q88 95 257 95h17l182 -6q37 -44 69 -44q5 0 10 1h2q35 0 52 -183q-34 -118 -34 -152l24 -105l38 -89q66 119 68 235q-52 119 -71 135z" />
    <glyph glyph-name="Zcaron" unicode="&#x17d;" 
d="M837 1917h26q128 0 162 -27q9 -7 9 -21q0 -44 -89 -156q-118 -147 -328 -210l-90 35q-106 74 -121 127q-149 86 -172 152q-18 38 -18 61q0 22 17 32q25 13 75 13q17 0 36 -1q66 -5 128 -5h20q37 -55 39 -68q83 -69 83 -104q0 -2 -1 -5q47 0 120 93q-11 19 -11 34
q0 48 115 50zM357 618q88 201 188 311l239 283l1 30q0 9 -14 9q-31 0 -131 -43l-45 2q-45 19 -81 19q-102 0 -137 -152q-46 -195 -114 -195h-2l-76 1q-131 6 -131 122v3q1 64 32 118q-38 94 -38 146v3q53 228 318 228q26 0 55 -2l120 -5l89 -19q20 12 57 12q8 0 17 -1l30 -1
q14 -1 14 -14v-2q52 24 139 24q12 0 26 -1q266 -12 266 -145v-2q-3 -197 -291 -464q-4 1 -8 1q-84 0 -187 -208q-110 -148 -113 -286q14 -60 88 -64l90 -4q32 0 170 380l91 41q186 -9 186 -383v-28l-48 -192q-74 -142 -443 -142q-46 0 -97 2q-209 40 -281 43h-1
q-23 0 -150 -38q-84 4 -177 128q10 38 75 162.5t274 322.5z" />
    <glyph glyph-name="zcaron" unicode="&#x17e;" 
d="M807 1552h22q106 0 134 -27q7 -7 7 -21q0 -44 -74 -156q-97 -147 -271 -210l-74 35q-88 74 -100 127q-123 86 -142 152q-15 38 -15 61q0 22 14 32q20 13 62 13q13 0 29 -1q55 -5 106 -5h17q31 -55 32 -68q68 -68 68 -104v-5q39 0 99 93q-9 19 -9 34q0 48 95 50zM730 1052
q18 0 38 1q54 3 130 14q138 -19 138 -92q-1 -123 -231 -382q-26 0 -123 -138q-37 0 -169 -199v-30q106 -31 184 -31h32q155 0 168 275l46 46h46q122 -1 122 -139l-1 -199q0 -185 -214 -185q-15 0 -31 1l-489 13q-76 -13 -134 -13q-173 0 -173 118v69q164 178 261 367h1
q193 0 398 274v31q-69 -18 -114 -18q-44 0 -65 17h-2q-205 0 -205 -124q0 -24 8 -53q-122 -96 -143 -96h-16q-56 0 -76 184q1 305 168 305h1q52 0 77 16q96 -16 184 -47q33 12 48 25l112 -6z" />
    <glyph glyph-name="florin" unicode="&#x192;" 
d="M519 382l-5 -6v349q-57 48 -107 50l-55 -14q-118 23 -118 121v4l2 61q2 51 271 70q70 445 256 445h6q21 0 149 25l67 -3q169 -5 262 -280l-3 -75q-14 -34 -127 -65q-25 -6 -44 -6q-79 0 -111 96v6q0 84 -79 86q-91 -33 -109 -101v-3q-1 -10 -1 -19q0 -135 111 -138l14 -1
q12 1 24 1q61 0 107 -34q37 -28 37 -47q0 -9 -9 -16q-4 -114 -184 -114h-22q-63 -21 -86 -107l-8 -9q-6 -195 -6 -262q0 -62 1 -79q0 -33 -4 -90l38 -281q-105 -348 -414 -355h-12q-192 0 -224 83q-14 33 -14 66q0 50 30 102q32 57 83 57q25 0 54 -14v-2l31 -16l110 3
q19 1 94 82l-6 50v66q0 106 1 314z" />
    <glyph glyph-name="ohorn" unicode="&#x1a1;" 
d="M383 546q0 -105 199 -301q219 0 287 156q57 60 57 143v15q-37 329 -214 329h-33q-296 0 -296 -242v-100zM1059 892l92 -290q-17 -135 -17 -220v-94q-205 -273 -416 -313q-490 1 -623 424q66 503 145 503q0 163 480 219h17q100 0 204 -92q38 51 38 107q0 54 -34 111l30 47
q47 27 112 27q42 0 91 -11l26 -44q22 -65 22 -121q0 -147 -153 -237q-7 -9 -14 -16z" />
    <glyph glyph-name="circumflex" unicode="&#x2c6;" 
d="M805 1516q-110 2 -110 50q0 15 11 34q-70 93 -115 93q1 -3 1 -6q0 -35 -79 -103q-1 -13 -37 -68h-20q-59 0 -122 -5q-18 -1 -34 -1q-48 0 -71 14q-16 9 -16 31q0 23 17 61q22 66 164 152q14 53 116 127l85 35q201 -63 313 -210q85 -112 85 -156q0 -14 -8 -21
q-33 -27 -155 -27h-25z" />
    <glyph glyph-name="tilde" unicode="&#x2dc;" 
d="M666 1821q105 -28 172 -28q27 -10 49 -10q67 0 76 58q6 39 70 39q30 0 74 -9h26q17 0 17 -58q0 -42 -9 -116q-26 -137 -318 -149q-237 1 -291 86l-216 22q-56 -96 -195 -96q-26 0 -54 3q-7 27 -7 51q0 19 4 36l26 101q18 65 279 136q251 -66 297 -66z" />
    <glyph glyph-name="endash" unicode="&#x2013;" 
d="M692 632q325 0 325 -105v-48q0 -139 -213 -139l-135 24l-145 -24q-336 0 -336 93q-11 0 -11 12q0 73 122 174q291 13 393 13z" />
    <glyph glyph-name="emdash" unicode="&#x2014;" 
d="M754 632q476 0 476 -105v-48q0 -139 -312 -139l-198 24l-212 -24q-491 0 -491 93q-17 0 -17 12q-2 16 -2 31q0 129 182 143q425 13 574 13z" />
    <glyph glyph-name="quoteleft" unicode="&#x2018;" 
d="M912 1566v-47q0 -18 -156 -189l156 -187v-31q-39 -63 -125 -63h-64q-201 123 -312 533v94q0 130 204 219q203 0 297 -329z" />
    <glyph glyph-name="quoteright" unicode="&#x2019;" 
d="M708 1895q204 -89 204 -219v-94q-111 -410 -312 -533h-64q-86 0 -125 63v31l156 187q-156 171 -156 189v47q94 329 297 329z" />
    <glyph glyph-name="quotesinglbase" unicode="&#x201a;" 
d="M642 553q201 -88 201 -217v-93q-109 -404 -309 -526h-62q-85 0 -124 62v31l155 185q-155 169 -155 186v47q92 325 294 325z" />
    <glyph glyph-name="quotedblleft" unicode="&#x201c;" 
d="M600 1158v-47q0 -5 -13 -23q-14 -92 -107 -127q-16 -17 -33 -36l153 -185v-31q-38 -62 -122 -62h-62q-180 112 -286 459q-20 29 -42 63v49q13 36 25 66q5 49 40 91q45 89 81 89h36q19 10 40 19q48 0 90 -19h12q133 0 177 -197v-73q6 -17 11 -36zM1147 1163v-46
q0 -17 -155 -184l155 -182v-31q-39 -61 -124 -61h-62q-200 120 -309 519v92q0 127 201 214q202 0 294 -321z" />
    <glyph glyph-name="quotedblright" unicode="&#x201d;" 
d="M92 1205v73q45 197 180 197h12q42 19 91 19q21 -9 40 -19h37q36 0 82 -89q35 -42 41 -91q12 -30 25 -66v-49q-22 -34 -43 -63q-107 -347 -290 -459h-62q-85 0 -124 62v31l155 185q-17 19 -33 36q-95 35 -109 127q-13 18 -13 23v47q5 19 11 36zM946 1484q201 -88 201 -217
v-93q-109 -404 -309 -526h-62q-85 0 -124 62v31l155 185q-155 169 -155 186v47q92 325 294 325z" />
    <glyph glyph-name="quotedblbase" unicode="&#x201e;" 
d="M92 275v73q45 197 180 197h12q42 19 91 19q21 -9 40 -19h37q36 0 82 -89q35 -42 41 -91q12 -30 25 -66v-49q-22 -34 -43 -63q-107 -347 -290 -459h-62q-85 0 -124 62v31l155 185q-17 19 -33 36q-95 35 -109 127q-13 18 -13 23v47q5 19 11 36zM946 554q201 -88 201 -217
v-93q-109 -404 -309 -526h-62q-85 0 -124 62v31l155 185q-155 169 -155 186v47q92 325 294 325z" />
    <glyph glyph-name="dagger" unicode="&#x2020;" 
d="M764 1047q-3 -37 -7 -79q-19 -20 -19 -76q0 -58 20 -154q1 -6 1 -12q0 -66 -65 -175q70 -101 70 -200q0 -68 -33 -134q23 -71 23 -180q0 -75 -11 -168q16 -24 16 -48q0 -50 -69 -103q-22 -12 -50 -12q-35 0 -79 20l-77 113q-14 20 -14 51q0 57 49 153l3 401q52 28 62 140
l-55 79q-41 60 -41 192q0 79 15 185q-315 3 -315 93q-11 0 -11 12q0 73 122 174q102 5 181 8q-5 53 -5 106q0 91 14 178q-9 48 -9 89q0 138 99 190q39 5 67 5q46 0 62 -14l31 -45q18 -26 25 -495q3 -4 5 -11q248 -11 248 -103v-48q0 -139 -213 -139z" />
    <glyph glyph-name="daggerdbl" unicode="&#x2021;" 
d="M740 641q286 -6 286 -92q11 0 11 -12q0 -73 -122 -174q-83 -4 -151 -6v-6q0 -68 -33 -134q23 -71 23 -180q0 -75 -11 -168q16 -24 16 -48q0 -50 -69 -103q-22 -12 -50 -12q-35 0 -79 20l-77 113q-14 20 -14 51q0 57 49 153l2 307q-324 0 -324 105v48q0 139 213 139
l135 -24l14 2l-30 43q-41 60 -41 192q0 79 15 185q-315 3 -315 93q-11 0 -11 12q0 73 122 174q102 5 181 8q-5 53 -5 106q0 91 14 178q-9 48 -9 89q0 138 99 190q39 5 67 5q46 0 62 -14l31 -45q18 -26 25 -495q3 -4 5 -11q248 -11 248 -103v-48q0 -139 -213 -139l-40 7
q-3 -37 -7 -79q-19 -20 -19 -76q0 -58 20 -154q1 -6 1 -12q0 -36 -19 -85z" />
    <glyph glyph-name="bullet" unicode="&#x2022;" 
d="M649 1110q269 -174 269 -334v-38q-117 -260 -269 -260h-44q-337 0 -337 354q0 213 381 278z" />
    <glyph glyph-name="ellipsis" unicode="&#x2026;" 
d="M820 138q-106 -135 -204 -135h-23q-158 59 -158 135v23q0 170 216 170q130 0 169 -193zM416 190q-52 -193 -182 -193h-113q-102 57 -102 147q0 182 181 182h79q137 0 137 -136zM1047 357q152 -98 152 -189v-21q-66 -147 -152 -147h-25q-190 0 -190 200q0 120 215 157z
" />
    <glyph glyph-name="perthousand" unicode="&#x2030;" 
d="M48 659l40 14q332 183 521 197q159 69 167 72q352 79 424 83l7 -158v-5q0 -35 -62 -56q-21 -8 -220 -64q-175 -97 -278 -134l-107 -37q-278 -90 -420 -90q-58 0 -94 15l-1 115q-2 4 -2 8q0 16 25 40zM432 1503q102 0 209 -126l63 -172q-11 -76 -11 -125v-54
q-135 -156 -273 -179q-320 0 -407 243q43 288 95 288q0 93 313 125h11zM207 1152q0 -57 124 -164q135 0 177 85q36 33 36 78v7q-23 180 -133 180h-20q-184 0 -184 -132v-54zM945 498q-147 -15 -147 -58q-23 0 -43 -134q40 -113 189 -113q63 11 126 83v25q0 22 5 58l-29 80
q-50 59 -97 59h-4zM596 418q0 243 339 243h39q203 0 246 -331v-15q0 -84 -66 -144q-79 -157 -330 -157q-228 115 -228 303v101zM376 485q88 0 180 -124l54 -169q-10 -75 -10 -123v-53q-115 -153 -234 -176q-276 0 -351 239q37 283 82 283q0 92 270 123h9zM177 151
q0 -56 105 -159q116 0 152 82q30 32 30 76v7q-20 174 -113 174h-17q-157 0 -157 -127v-53z" />
    <glyph glyph-name="Euro" unicode="&#x20ac;" 
d="M78 993q53 270 181 343q0 97 338 165h34q83 -15 270 -90q89 26 152 75h50q28 0 68 -105q-34 -125 -34 -270q0 -27 34 -165q-43 -117 -102 -135q-124 0 -253 360q-112 60 -152 60h-50q-246 -39 -313 -267q106 7 177 7q47 0 79 -3q48 6 89 6q138 0 190 -70q5 -28 5 -47
q0 -33 -14 -44l-45 -22q-14 -7 -95 -7q-61 0 -160 4q-195 7 -251 8v-30q-12 -17 -15 -46h1q90 0 149 -16q130 9 136 9q262 -31 262 -44v-107q-11 -27 -63 -27q-16 0 -168 10q-150 -23 -231 -23h-38q86 -192 271 -192h101q142 0 220 180q73 116 168 165q59 -18 102 -135
q-94 -435 -270 -435q-105 -105 -287 -105q-506 122 -506 390q-24 0 -68 120v22q-107 11 -107 33v105q0 13 32 26h31q25 4 49 7q2 47 6 90h-6q-50 0 -103 49q-12 15 -12 35q0 25 20 56l113 54q7 3 15 6z" />
    <glyph glyph-name="trademark" unicode="&#x2122;" 
d="M140 1503q36 -1 48 -9q64 7 106 7h6l113 -1q168 -3 168 -99v-1q0 -5 46 -123l-8 -57q7 -43 7 -49q-4 -73 -64 -73h-9q-76 1 -102 213v2q0 56 -28 56q-11 0 -24 -24q0 -48 -10 -171q29 -179 29 -241v-21q0 -30 92 -41q55 -59 55 -98v-1q0 -63 -169 -63h-8q0 -8 -43 -8h-5
q-265 3 -265 60q-24 9 -24 48v1q1 49 158 64q25 26 25 40v5q0 39 -8 93q1 20 18 114q-7 67 -7 116v7l1 81l-32 9q-25 0 -71 -220q-29 -23 -55 -23h-17q-32 17 -32 40v10q0 57 -6 170q51 187 106 187h9zM842 731q-6 -29 -29 -29h-24q-40 0 -140 -4q-32 13 -50 49v31
q0 15 64 134q0 96 14 159l-14 262q-57 1 -78 121l121 53q141 -2 141 -113q36 -194 43 -279l14 -8q39 49 57 174q14 0 21 158q23 60 182 60h17q42 -64 42 -96q-70 -68 -70 -245q0 -33 7 -64q-7 -41 -7 -79v-130q64 -45 64 -93q-30 -94 -98 -94h-2l-7 1q-7 0 -7 7l-35 -7
l-57 1q-21 0 -34 28q-7 17 -7 36q0 14 4 30q9 38 34 51t25 100q0 46 7 56l-7 47v56q0 16 -14 16q-23 -69 -23 -205q-6 0 -21 -32v-22q-27 -102 -45.5 -118.5t-38.5 -20.5h-1q-19 0 -56 179q0 24 -36 88q0 41 -1 136h-7l-8 -40v-39q0 -35 15 -64q-7 -43 -7 -72v-15
q1 -40 23.5 -40.5t29.5 -46.5q3 -22 3 -40q0 -21 -4 -37z" />
  </font>
</defs>
</svg>
